<svg width="79" height="79" viewBox="0 0 79 79" fill="none" xmlns="http://www.w3.org/2000/svg">
<path d="M47.0144 70.4819C44.7034 72.7929 41.0546 72.9035 38.8793 70.7282L24.6742 56.5231C20.1638 56.9515 16.4372 55.83 13.872 53.2649C7.45712 46.8499 8.6038 30.7889 19.6965 19.6962C30.7892 8.60349 46.8499 7.45718 53.2648 13.8721C55.8901 16.4974 57.0181 20.4947 56.4643 25.1736L70.4491 39.1584C72.6244 41.3336 72.5138 44.9825 70.2028 47.2935L47.0144 70.4819Z" fill="#D98126"/>
<path d="M70.4486 39.1584L56.4638 25.1736C56.988 20.7439 56.003 16.9262 53.6682 14.3048C47.2292 8.46344 32.0348 9.72425 21.476 20.283C10.7199 31.0391 9.60778 46.6134 15.8286 52.8343C18.316 55.3217 21.9292 56.4089 26.3028 55.9935L40.0777 69.7684C42.1871 71.8777 45.7254 71.7704 47.9662 69.5297L70.2024 47.2935C72.5134 44.9825 72.6239 41.3336 70.4486 39.1584Z" fill="#E08B27"/>
<path d="M53.9684 14.7423C47.853 8.62693 33.2173 9.41538 23.7037 18.929C14.1904 28.4423 13.4016 43.0784 19.517 49.1937C22.0101 51.6869 25.5935 52.7047 29.6063 52.3929L44.1261 66.9127C45.8632 68.6498 48.6426 68.6865 50.3336 66.9955L71.5153 45.8138C73.2067 44.1224 73.1692 41.3438 71.4321 39.6066L57.1215 25.296C57.5503 21.0949 56.557 17.3309 53.9684 14.7423" fill="#F7C076"/>
<path d="M71.432 39.6063L57.1214 25.2957C57.5268 21.3239 56.6588 17.7442 54.3755 15.1772C48.254 9.64471 34.4805 10.5552 25.4598 19.576C16.2522 28.7836 15.4889 42.9484 21.4077 48.8672C23.8206 51.2801 27.2883 52.2651 31.173 51.9634L45.2251 66.0155C46.9064 67.6968 49.5958 67.7328 51.2328 66.0958L71.5152 45.8135C73.2065 44.1221 73.1691 41.3434 71.432 39.6063Z" fill="#F8C67C"/>
<path d="M44.4337 13.2454C46.5204 14.1239 47.6163 16.2538 46.8801 18.0032C46.1438 19.7525 43.8548 20.4596 41.7677 19.5808C39.6814 18.7034 38.5855 16.5735 39.3217 14.8234C40.058 13.0741 42.3467 12.3674 44.4337 13.2454Z" fill="#F9DFBD"/>
<path d="M52.7113 16.8054C53.899 17.7929 54.1903 19.4012 53.3618 20.3966C52.5341 21.3914 50.9007 21.3975 49.7126 20.4103C48.5253 19.4217 48.2337 17.8145 49.0617 16.8194C49.8898 15.8236 51.5239 15.8175 52.7113 16.8054Z" fill="#F9DFBD"/>
<path d="M25.239 37.5164C25.4748 37.7522 25.3409 38.2678 24.9409 38.6677C24.5406 39.0681 24.025 39.202 23.7892 38.9662C23.5541 38.7311 23.6877 38.2152 24.088 37.8148C24.488 37.4149 25.0039 37.2813 25.239 37.5164Z" fill="#F0B462"/>
<path d="M25.2168 32.0808C25.4526 32.3166 25.4242 32.7267 25.1534 32.9974C24.8827 33.2682 24.4723 33.297 24.2365 33.0612C24.001 32.8257 24.0302 32.4156 24.3009 32.1449C24.5716 31.8742 24.9814 31.8454 25.2168 32.0808Z" fill="#F0B462"/>
<path d="M24.1729 43.443C24.4321 43.7022 24.4324 44.1216 24.1732 44.3809C23.914 44.6401 23.4942 44.6401 23.235 44.3809C22.9761 44.122 22.9758 43.7019 23.235 43.4426C23.4942 43.1834 23.914 43.1841 24.1729 43.443Z" fill="#F0B462"/>
<path d="M30.3546 42.1213C30.5901 42.3568 30.6091 42.7193 30.3971 42.9314C30.1854 43.1431 29.8229 43.124 29.5874 42.8885C29.3523 42.6535 29.3325 42.2902 29.5442 42.0785C29.7563 41.8664 30.1195 41.8862 30.3546 42.1213Z" fill="#F0B462"/>
<path d="M53.5045 44.4653C53.6223 44.5831 53.5841 44.8128 53.4192 44.9777C53.2547 45.1422 53.0253 45.18 52.9076 45.0623C52.7902 44.9449 52.828 44.7156 52.9926 44.551C53.1575 44.3861 53.3872 44.348 53.5045 44.4653Z" fill="#F0B462"/>
<path d="M56.446 33.4237C56.7758 33.7535 56.8712 34.1924 56.6588 34.4048C56.4471 34.6165 56.0082 34.5211 55.6785 34.1913C55.3487 33.8615 55.2533 33.4226 55.465 33.2109C55.6774 32.9985 56.1163 33.0939 56.446 33.4237Z" fill="#F0B462"/>
<path d="M61.6891 45.3185C61.9483 45.5777 62.5207 45.4251 62.9679 44.9779C63.4158 44.53 63.5681 43.958 63.3088 43.6987C63.0496 43.4395 62.4779 43.5922 62.03 44.04C61.5829 44.4872 61.4299 45.0593 61.6891 45.3185Z" fill="#F0B462"/>
<path d="M46.2138 63.0967C46.4964 63.3793 46.4964 63.8373 46.2141 64.1195C45.9311 64.4025 45.4732 64.4025 45.1906 64.1199C44.9083 63.8376 44.9079 63.3793 45.1909 63.0963C45.4732 62.8141 45.9315 62.8144 46.2138 63.0967Z" fill="#F0B462"/>
<path d="M46.981 28.5638C47.1693 28.7521 47.1696 29.0571 46.981 29.2457C46.7923 29.4344 46.487 29.4344 46.2987 29.2461C46.1104 29.0578 46.1104 28.7525 46.2991 28.5638C46.4877 28.3752 46.7927 28.3755 46.981 28.5638Z" fill="#F0B462"/>
<path d="M26.432 21.8281C26.5731 21.9693 26.4205 22.3509 26.0907 22.6807C25.7613 23.0101 25.3797 23.1627 25.2385 23.0216C25.097 22.8801 25.25 22.4989 25.5795 22.1694C25.9092 21.8397 26.2905 21.6866 26.432 21.8281Z" fill="#F0B462"/>
<path d="M40.8002 54.7832C41.0119 54.9949 40.955 55.396 40.6724 55.6786C40.3897 55.9612 39.989 56.0177 39.7774 55.806C39.5653 55.594 39.6225 55.194 39.9052 54.9114C40.1878 54.6288 40.5881 54.5711 40.8002 54.7832Z" fill="#F0B462"/>
<path d="M43.9962 37.3462C44.1845 37.5345 44.1658 37.8592 43.9541 38.0709C43.742 38.283 43.4173 38.3017 43.229 38.1134C43.0407 37.9251 43.0598 37.6007 43.2719 37.3887C43.4835 37.177 43.8079 37.1579 43.9962 37.3462Z" fill="#F0B462"/>
<path d="M53.2056 23.5337C53.2999 23.628 53.2426 23.8372 53.0778 24.0021C52.9125 24.1673 52.7033 24.2246 52.609 24.1302C52.5147 24.0359 52.5716 23.8264 52.7368 23.6611C52.9017 23.4962 53.1112 23.4394 53.2056 23.5337Z" fill="#F0B462"/>
<path d="M32.5287 33.3817C32.7404 33.5934 32.7022 33.975 32.4434 34.2339C32.1845 34.4927 31.8029 34.5309 31.5912 34.3192C31.3791 34.1072 31.4173 33.7255 31.6762 33.4667C31.935 33.2078 32.3166 33.1697 32.5287 33.3817Z" fill="#F0B462"/>
<path d="M37.005 48.6013C37.1933 48.7896 37.1746 49.1144 36.9625 49.3264C36.7505 49.5385 36.4261 49.5568 36.2378 49.3685C36.0491 49.1799 36.0682 48.8562 36.2803 48.6442C36.4923 48.4321 36.8164 48.4127 37.005 48.6013Z" fill="#F0B462"/>
<path d="M52.5236 52.3528C52.7122 52.5414 52.7122 52.8467 52.5239 53.035C52.3353 53.2237 52.03 53.2237 51.8413 53.035C51.653 52.8467 51.6534 52.5418 51.842 52.3531C52.0303 52.1649 52.3353 52.1645 52.5236 52.3528Z" fill="#F0B462"/>
<path d="M40.0326 28.2654C40.2443 28.4771 40.2634 28.8015 40.0747 28.9901C39.886 29.1788 39.5617 29.1597 39.35 28.948C39.1379 28.7359 39.1188 28.4116 39.3075 28.2229C39.4961 28.0343 39.8205 28.0533 40.0326 28.2654Z" fill="#F0B462"/>
</svg>
