<svg width="127" height="24" viewBox="0 0 127 24" fill="none" xmlns="http://www.w3.org/2000/svg">
<path d="M26.7052 8.59304V6.81818H35.0674V8.59304H31.9502V17H29.8224V8.59304H26.7052ZM38.7476 17.1491C37.9753 17.1491 37.3075 16.9851 36.7441 16.657C36.1839 16.3255 35.7514 15.8648 35.4465 15.2749C35.1415 14.6816 34.9891 13.9938 34.9891 13.2116C34.9891 12.4228 35.1415 11.7334 35.4465 11.1435C35.7514 10.5502 36.1839 10.0895 36.7441 9.76136C37.3075 9.42992 37.9753 9.2642 38.7476 9.2642C39.5199 9.2642 40.186 9.42992 40.7462 9.76136C41.3096 10.0895 41.7438 10.5502 42.0487 11.1435C42.3537 11.7334 42.5061 12.4228 42.5061 13.2116C42.5061 13.9938 42.3537 14.6816 42.0487 15.2749C41.7438 15.8648 41.3096 16.3255 40.7462 16.657C40.186 16.9851 39.5199 17.1491 38.7476 17.1491ZM38.7575 15.5085C39.1089 15.5085 39.4022 15.4091 39.6375 15.2102C39.8728 15.008 40.0502 14.733 40.1695 14.3849C40.2921 14.0369 40.3534 13.6409 40.3534 13.1967C40.3534 12.7526 40.2921 12.3565 40.1695 12.0085C40.0502 11.6605 39.8728 11.3854 39.6375 11.1832C39.4022 10.9811 39.1089 10.88 38.7575 10.88C38.4029 10.88 38.1046 10.9811 37.8627 11.1832C37.624 11.3854 37.4434 11.6605 37.3208 12.0085C37.2014 12.3565 37.1418 12.7526 37.1418 13.1967C37.1418 13.6409 37.2014 14.0369 37.3208 14.3849C37.4434 14.733 37.624 15.008 37.8627 15.2102C38.1046 15.4091 38.4029 15.5085 38.7575 15.5085ZM46.0608 17.1442C45.5736 17.1442 45.1394 17.0597 44.7583 16.8906C44.3771 16.7183 44.0755 16.4647 43.8534 16.13C43.6347 15.7919 43.5253 15.371 43.5253 14.8672C43.5253 14.4429 43.6032 14.0866 43.759 13.7983C43.9147 13.5099 44.1269 13.2779 44.3953 13.1023C44.6638 12.9266 44.9687 12.794 45.3101 12.7045C45.6548 12.6151 46.0161 12.5521 46.3939 12.5156C46.838 12.4692 47.196 12.4261 47.4678 12.3864C47.7396 12.3433 47.9368 12.2803 48.0594 12.1974C48.182 12.1146 48.2433 11.992 48.2433 11.8295V11.7997C48.2433 11.4848 48.1439 11.2412 47.945 11.0689C47.7495 10.8965 47.4711 10.8104 47.1098 10.8104C46.7287 10.8104 46.4254 10.8949 46.2 11.0639C45.9746 11.2296 45.8255 11.4384 45.7526 11.6903L43.7938 11.5312C43.8932 11.0672 44.0887 10.6662 44.3804 10.3281C44.6721 9.98674 45.0483 9.7249 45.509 9.54261C45.973 9.35701 46.5099 9.2642 47.1198 9.2642C47.544 9.2642 47.95 9.31392 48.3378 9.41335C48.7289 9.51278 49.0753 9.6669 49.3769 9.87571C49.6818 10.0845 49.9221 10.353 50.0977 10.6811C50.2734 11.0059 50.3612 11.3954 50.3612 11.8494V17H48.3527V15.9411H48.2931C48.1704 16.1797 48.0064 16.3902 47.8009 16.5724C47.5954 16.7514 47.3485 16.8923 47.0601 16.995C46.7718 17.0945 46.4387 17.1442 46.0608 17.1442ZM46.6673 15.6825C46.9789 15.6825 47.254 15.6212 47.4926 15.4986C47.7313 15.3726 47.9185 15.2036 48.0544 14.9915C48.1903 14.7794 48.2583 14.5391 48.2583 14.2706V13.4602C48.192 13.5033 48.1008 13.5431 47.9848 13.5795C47.8721 13.6127 47.7445 13.6442 47.602 13.674C47.4595 13.7005 47.317 13.7254 47.1744 13.7486C47.0319 13.7685 46.9027 13.7867 46.7867 13.8033C46.5381 13.8397 46.321 13.8977 46.1354 13.9773C45.9498 14.0568 45.8056 14.1645 45.7029 14.3004C45.6001 14.433 45.5487 14.5987 45.5487 14.7976C45.5487 15.0859 45.6531 15.3063 45.8619 15.4588C46.0741 15.608 46.3425 15.6825 46.6673 15.6825ZM58.358 11.5412L56.4191 11.6605C56.386 11.4948 56.3147 11.3456 56.2053 11.2131C56.096 11.0772 55.9518 10.9695 55.7728 10.8899C55.5972 10.8071 55.3867 10.7656 55.1414 10.7656C54.8133 10.7656 54.5365 10.8352 54.3112 10.9744C54.0858 11.1103 53.9731 11.2926 53.9731 11.5213C53.9731 11.7036 54.046 11.8577 54.1919 11.9837C54.3377 12.1096 54.5879 12.2107 54.9426 12.2869L56.3247 12.5653C57.0671 12.7178 57.6206 12.9631 57.9852 13.3011C58.3498 13.6392 58.532 14.0833 58.532 14.6335C58.532 15.134 58.3846 15.5732 58.0896 15.951C57.7979 16.3288 57.3969 16.6238 56.8865 16.8359C56.3794 17.0447 55.7944 17.1491 55.1315 17.1491C54.1206 17.1491 53.3152 16.9387 52.7153 16.5178C52.1187 16.0935 51.769 15.5168 51.6663 14.7876L53.7494 14.6783C53.8124 14.9865 53.9648 15.2218 54.2068 15.3842C54.4487 15.5433 54.7586 15.6229 55.1365 15.6229C55.5077 15.6229 55.806 15.5516 56.0313 15.4091C56.26 15.2633 56.376 15.076 56.3794 14.8473C56.376 14.6551 56.2948 14.4976 56.1357 14.375C55.9767 14.2491 55.7314 14.1529 55.3999 14.0866L54.0775 13.8232C53.3318 13.674 52.7766 13.4155 52.412 13.0476C52.0508 12.6797 51.8701 12.2107 51.8701 11.6406C51.8701 11.1501 52.0027 10.7275 52.2678 10.3729C52.5363 10.0182 52.9125 9.74479 53.3964 9.55256C53.8836 9.36032 54.4537 9.2642 55.1066 9.2642C56.0711 9.2642 56.8301 9.46804 57.3836 9.87571C57.9404 10.2834 58.2652 10.8385 58.358 11.5412ZM63.9275 9.36364V10.9545H59.3287V9.36364H63.9275ZM60.3728 7.53409H62.4907V14.6534C62.4907 14.849 62.5205 15.0014 62.5802 15.1108C62.6398 15.2169 62.7227 15.2914 62.8287 15.3345C62.9381 15.3776 63.0641 15.3991 63.2066 15.3991C63.306 15.3991 63.4055 15.3909 63.5049 15.3743C63.6043 15.3544 63.6805 15.3395 63.7336 15.3295L64.0667 16.9055C63.9606 16.9387 63.8115 16.9768 63.6192 17.0199C63.427 17.0663 63.1933 17.0945 62.9182 17.1044C62.4078 17.1243 61.9604 17.0563 61.5759 16.9006C61.1948 16.7448 60.8981 16.5028 60.686 16.1747C60.4739 15.8466 60.3695 15.4323 60.3728 14.9318V7.53409ZM66.6146 19.8636C66.3461 19.8636 66.0943 19.8421 65.8589 19.799C65.6269 19.7592 65.4347 19.7079 65.2822 19.6449L65.7595 18.0639C66.0081 18.1402 66.2318 18.1816 66.4307 18.1882C66.6328 18.1948 66.8068 18.1484 66.9527 18.049C67.1018 17.9496 67.2228 17.7805 67.3156 17.5419L67.4399 17.2188L64.7006 9.36364H66.9278L68.5088 14.9716H68.5883L70.1842 9.36364H72.4264L69.4584 17.8253C69.3158 18.2363 69.122 18.5942 68.8767 18.8991C68.6347 19.2074 68.3282 19.4444 67.9569 19.6101C67.5857 19.7791 67.1383 19.8636 66.6146 19.8636ZM73.55 17V6.81818H80.2915V8.59304H75.7027V11.0192H79.844V12.794H75.7027V17H73.55ZM81.6997 17V9.36364H83.8176V17H81.6997ZM82.7636 8.37926C82.4487 8.37926 82.1786 8.27486 81.9532 8.06605C81.7311 7.85393 81.6201 7.60038 81.6201 7.3054C81.6201 7.01373 81.7311 6.76349 81.9532 6.55469C82.1786 6.34257 82.4487 6.23651 82.7636 6.23651C83.0785 6.23651 83.3469 6.34257 83.569 6.55469C83.7944 6.76349 83.907 7.01373 83.907 7.3054C83.907 7.60038 83.7944 7.85393 83.569 8.06605C83.3469 8.27486 83.0785 8.37926 82.7636 8.37926ZM87.632 12.5852V17H85.5141V9.36364H87.5326V10.7109H87.6221C87.7911 10.2668 88.0745 9.91548 88.4722 9.65696C88.8699 9.39512 89.3522 9.2642 89.9189 9.2642C90.4492 9.2642 90.9116 9.38021 91.306 9.61222C91.7004 9.84422 92.007 10.1757 92.2258 10.6065C92.4445 11.0341 92.5539 11.5445 92.5539 12.1378V17H90.436V12.5156C90.4393 12.0483 90.32 11.6837 90.078 11.4219C89.8361 11.1567 89.503 11.0241 89.0787 11.0241C88.7937 11.0241 88.5418 11.0855 88.3231 11.2081C88.1076 11.3307 87.9386 11.5097 87.816 11.745C87.6966 11.977 87.6353 12.2571 87.632 12.5852ZM96.4007 17.1442C95.9134 17.1442 95.4793 17.0597 95.0981 16.8906C94.7169 16.7183 94.4153 16.4647 94.1933 16.13C93.9745 15.7919 93.8651 15.371 93.8651 14.8672C93.8651 14.4429 93.943 14.0866 94.0988 13.7983C94.2546 13.5099 94.4667 13.2779 94.7352 13.1023C95.0036 12.9266 95.3086 12.794 95.6499 12.7045C95.9946 12.6151 96.3559 12.5521 96.7338 12.5156C97.1779 12.4692 97.5358 12.4261 97.8076 12.3864C98.0794 12.3433 98.2766 12.2803 98.3992 12.1974C98.5219 12.1146 98.5832 11.992 98.5832 11.8295V11.7997C98.5832 11.4848 98.4838 11.2412 98.2849 11.0689C98.0893 10.8965 97.8109 10.8104 97.4497 10.8104C97.0685 10.8104 96.7652 10.8949 96.5399 11.0639C96.3145 11.2296 96.1653 11.4384 96.0924 11.6903L94.1336 11.5312C94.233 11.0672 94.4286 10.6662 94.7203 10.3281C95.0119 9.98674 95.3881 9.7249 95.8488 9.54261C96.3128 9.35701 96.8498 9.2642 97.4596 9.2642C97.8838 9.2642 98.2899 9.31392 98.6776 9.41335C99.0687 9.51278 99.4151 9.6669 99.7167 9.87571C100.022 10.0845 100.262 10.353 100.438 10.6811C100.613 11.0059 100.701 11.3954 100.701 11.8494V17H98.6926V15.9411H98.6329C98.5103 16.1797 98.3462 16.3902 98.1407 16.5724C97.9352 16.7514 97.6883 16.8923 97.3999 16.995C97.1116 17.0945 96.7785 17.1442 96.4007 17.1442ZM97.0072 15.6825C97.3187 15.6825 97.5938 15.6212 97.8325 15.4986C98.0711 15.3726 98.2584 15.2036 98.3943 14.9915C98.5302 14.7794 98.5981 14.5391 98.5981 14.2706V13.4602C98.5318 13.5033 98.4407 13.5431 98.3247 13.5795C98.212 13.6127 98.0844 13.6442 97.9419 13.674C97.7993 13.7005 97.6568 13.7254 97.5143 13.7486C97.3718 13.7685 97.2425 13.7867 97.1265 13.8033C96.8779 13.8397 96.6608 13.8977 96.4752 13.9773C96.2896 14.0568 96.1454 14.1645 96.0427 14.3004C95.94 14.433 95.8886 14.5987 95.8886 14.7976C95.8886 15.0859 95.993 15.3063 96.2018 15.4588C96.4139 15.608 96.6824 15.6825 97.0072 15.6825ZM104.462 12.5852V17H102.344V9.36364H104.363V10.7109H104.452C104.621 10.2668 104.905 9.91548 105.302 9.65696C105.7 9.39512 106.182 9.2642 106.749 9.2642C107.279 9.2642 107.742 9.38021 108.136 9.61222C108.531 9.84422 108.837 10.1757 109.056 10.6065C109.275 11.0341 109.384 11.5445 109.384 12.1378V17H107.266V12.5156C107.269 12.0483 107.15 11.6837 106.908 11.4219C106.666 11.1567 106.333 11.0241 105.909 11.0241C105.624 11.0241 105.372 11.0855 105.153 11.2081C104.938 11.3307 104.769 11.5097 104.646 11.745C104.527 11.977 104.465 12.2571 104.462 12.5852ZM114.503 17.1491C113.721 17.1491 113.048 16.9834 112.485 16.652C111.925 16.3172 111.494 15.8532 111.192 15.2599C110.894 14.6667 110.745 13.9839 110.745 13.2116C110.745 12.4295 110.896 11.7434 111.197 11.1534C111.502 10.5601 111.935 10.0978 112.495 9.76633C113.055 9.43158 113.721 9.2642 114.494 9.2642C115.16 9.2642 115.743 9.38518 116.244 9.62713C116.744 9.86908 117.14 10.2088 117.432 10.6463C117.723 11.0838 117.884 11.5975 117.914 12.1875H115.915C115.859 11.8063 115.71 11.4998 115.468 11.2678C115.229 11.0324 114.916 10.9148 114.528 10.9148C114.2 10.9148 113.914 11.0043 113.668 11.1832C113.426 11.3589 113.237 11.6158 113.101 11.9538C112.966 12.2919 112.898 12.7012 112.898 13.1818C112.898 13.669 112.964 14.0833 113.097 14.4247C113.232 14.7661 113.423 15.0263 113.668 15.2053C113.914 15.3842 114.2 15.4737 114.528 15.4737C114.77 15.4737 114.987 15.424 115.18 15.3246C115.375 15.2251 115.536 15.081 115.662 14.892C115.791 14.6998 115.876 14.4695 115.915 14.201H117.914C117.881 14.7843 117.722 15.2981 117.437 15.7422C117.155 16.183 116.766 16.5277 116.268 16.7763C115.771 17.0249 115.183 17.1491 114.503 17.1491ZM122.75 17.1491C121.965 17.1491 121.288 16.9901 120.722 16.6719C120.158 16.3504 119.724 15.8963 119.419 15.3097C119.114 14.7197 118.962 14.022 118.962 13.2166C118.962 12.4311 119.114 11.7417 119.419 11.1484C119.724 10.5552 120.153 10.0928 120.707 9.76136C121.264 9.42992 121.917 9.2642 122.666 9.2642C123.169 9.2642 123.638 9.34541 124.073 9.50781C124.51 9.6669 124.891 9.9072 125.216 10.2287C125.544 10.5502 125.799 10.9545 125.982 11.4418C126.164 11.9257 126.255 12.4924 126.255 13.142V13.7237H119.807V12.4112H124.261C124.261 12.1063 124.195 11.8362 124.063 11.6009C123.93 11.3655 123.746 11.1816 123.511 11.049C123.279 10.9131 123.009 10.8452 122.7 10.8452C122.379 10.8452 122.094 10.9197 121.845 11.0689C121.6 11.2147 121.408 11.4119 121.269 11.6605C121.129 11.9058 121.058 12.1792 121.055 12.4808V13.7287C121.055 14.1065 121.124 14.433 121.264 14.7081C121.406 14.9832 121.607 15.1953 121.865 15.3445C122.124 15.4936 122.43 15.5682 122.785 15.5682C123.02 15.5682 123.236 15.535 123.431 15.4688C123.627 15.4025 123.794 15.303 123.933 15.1705C124.073 15.0379 124.179 14.8755 124.252 14.6832L126.21 14.8125C126.111 15.2831 125.907 15.6941 125.599 16.0455C125.294 16.3935 124.899 16.6652 124.416 16.8608C123.935 17.053 123.38 17.1491 122.75 17.1491Z" fill="white"/>
<path d="M4.07799 21C2.89444 21 1.93178 20.0939 1.93178 18.9799V11.7049C0.667097 10.6596 0 9.41818 0 8.10445C0 4.81912 4.40638 1 10.0874 1C15.7684 1 20.1746 4.81912 20.1746 8.10445C20.1746 9.44897 19.4398 10.7614 18.0999 11.8177V18.9799C18.0999 20.0939 17.1373 21 15.9537 21H4.07799Z" fill="#D98126"/>
<path d="M18.0999 18.9799V11.8177C19.3684 10.8176 20.0938 9.58781 20.1672 8.3187C20.0141 5.17406 15.8004 1.60607 10.3928 1.60607C4.88421 1.60607 0.611328 5.30939 0.611328 8.49534C0.611328 9.76925 1.25814 10.9729 2.48447 11.9864V19.0411C2.48447 20.1214 3.418 21 4.5656 21H15.9536C17.1372 21 18.0999 20.0939 18.0999 18.9799Z" fill="#E08B27"/>
<path d="M20.1322 8.50756C20.1322 5.37564 16.1826 1.82977 11.3103 1.82977C6.43813 1.82977 2.48828 5.37564 2.48828 8.50756C2.48828 9.78442 3.14524 10.9626 4.25264 11.9103V19.3465C4.25264 20.2362 4.95495 20.9573 5.821 20.9573H16.669C17.5352 20.9573 18.2372 20.2362 18.2372 19.3465V12.0175C19.4227 11.0515 20.1322 9.83328 20.1322 8.50756Z" fill="#F7C076"/>
<path d="M18.2368 19.3465V12.0175C19.3577 11.1042 20.0521 9.96529 20.1247 8.72329C19.9739 5.73905 16.2138 2.44524 11.5939 2.44524C6.87829 2.44524 3.05566 5.87697 3.05566 8.90823C3.05566 10.144 3.69142 11.2842 4.76342 12.2017V19.3983C4.76342 20.2594 5.44287 20.9573 6.28126 20.9573H16.6686C17.5349 20.9573 18.2368 20.2362 18.2368 19.3465Z" fill="#F8C67C"/>
<path d="M18.074 5.68277C18.3834 6.44205 18.1187 7.26809 17.4822 7.52752C16.8457 7.78694 16.0785 7.38185 15.7691 6.62238C15.4595 5.86346 15.7243 5.03743 16.3609 4.77782C16.9974 4.51839 17.7645 4.92348 18.074 5.68277Z" fill="#F9DFBD"/>
<path d="M19.282 8.71401C19.3333 9.27103 18.996 9.75743 18.529 9.8002C18.0623 9.84298 17.6425 9.42627 17.591 8.86925C17.5401 8.31205 17.877 7.82583 18.3439 7.78306C18.8109 7.7401 19.2309 8.15698 19.282 8.71401Z" fill="#F9DFBD"/>
<path d="M6.94368 6.98243C6.94368 7.1032 6.77737 7.20093 6.57252 7.20093C6.36748 7.20093 6.20117 7.1032 6.20117 6.98243C6.20117 6.86203 6.36748 6.76413 6.57252 6.76413C6.77737 6.76413 6.94368 6.86203 6.94368 6.98243Z" fill="#F0B462"/>
<path d="M8.32922 5.58498C8.32922 5.70575 8.21694 5.80347 8.07828 5.80347C7.93962 5.80347 7.82715 5.70575 7.82715 5.58498C7.82715 5.46439 7.93962 5.36685 8.07828 5.36685C8.21694 5.36685 8.32922 5.46439 8.32922 5.58498Z" fill="#F0B462"/>
<path d="M5.15317 8.22703C5.15317 8.35979 5.04586 8.46729 4.9131 8.46729C4.78035 8.46729 4.67285 8.35979 4.67285 8.22703C4.67285 8.09446 4.78035 7.98678 4.9131 7.98678C5.04586 7.98678 5.15317 8.09446 5.15317 8.22703Z" fill="#F0B462"/>
<path d="M7.07456 9.47163C7.07456 9.59222 6.98661 9.68994 6.87801 9.68994C6.76959 9.68994 6.68164 9.59222 6.68164 9.47163C6.68164 9.35123 6.76959 9.25314 6.87801 9.25314C6.98661 9.25314 7.07456 9.35123 7.07456 9.47163Z" fill="#F0B462"/>
<path d="M12.4024 16C12.4024 16.0603 12.3338 16.1094 12.2493 16.1094C12.1651 16.1094 12.0967 16.0603 12.0967 16C12.0967 15.9399 12.1651 15.8909 12.2493 15.8909C12.3338 15.8909 12.4024 15.9399 12.4024 16Z" fill="#F0B462"/>
<path d="M15.982 13.9257C15.982 14.0946 15.894 14.2314 15.7852 14.2314C15.6768 14.2314 15.5889 14.0946 15.5889 13.9257C15.5889 13.7568 15.6768 13.62 15.7852 13.62C15.894 13.62 15.982 13.7568 15.982 13.9257Z" fill="#F0B462"/>
<path d="M14.2793 18.3144C14.2793 18.4472 14.465 18.5547 14.694 18.5547C14.9233 18.5547 15.1088 18.4472 15.1088 18.3144C15.1088 18.1817 14.9233 18.0744 14.694 18.0744C14.465 18.0744 14.2793 18.1817 14.2793 18.3144Z" fill="#F0B462"/>
<path d="M5.76425 18.904C5.76425 19.0487 5.64698 19.166 5.50243 19.166C5.3575 19.166 5.24023 19.0487 5.24023 18.904C5.24023 18.7595 5.3575 18.642 5.50243 18.642C5.64698 18.642 5.76425 18.7595 5.76425 18.904Z" fill="#F0B462"/>
<path d="M14.8035 10.2578C14.8035 10.3542 14.7255 10.4324 14.6289 10.4324C14.5323 10.4324 14.4541 10.3542 14.4541 10.2578C14.4541 10.1613 14.5323 10.0832 14.6289 10.0832C14.7255 10.0832 14.8035 10.1613 14.8035 10.2578Z" fill="#F0B462"/>
<path d="M11.2665 3.27095C11.2665 3.34322 11.1297 3.40186 10.9608 3.40186C10.7921 3.40186 10.6553 3.34322 10.6553 3.27095C10.6553 3.19848 10.7921 3.14003 10.9608 3.14003C11.1297 3.14003 11.2665 3.19848 11.2665 3.27095Z" fill="#F0B462"/>
<path d="M6.50723 15.3887C6.50723 15.4971 6.38996 15.5852 6.24522 15.5852C6.10048 15.5852 5.9834 15.4971 5.9834 15.3887C5.9834 15.2801 6.10048 15.1923 6.24522 15.1923C6.38996 15.1923 6.50723 15.2801 6.50723 15.3887Z" fill="#F0B462"/>
<path d="M11.7904 11.7424C11.7904 11.8389 11.7024 11.9172 11.594 11.9172C11.4854 11.9172 11.3975 11.8389 11.3975 11.7424C11.3975 11.646 11.4854 11.5678 11.594 11.5678C11.7024 11.5678 11.7904 11.646 11.7904 11.7424Z" fill="#F0B462"/>
<path d="M17.6854 10.5634C17.6854 10.6117 17.6172 10.6506 17.5327 10.6506C17.4481 10.6506 17.3799 10.6117 17.3799 10.5634C17.3799 10.5151 17.4481 10.476 17.5327 10.476C17.6172 10.476 17.6854 10.5151 17.6854 10.5634Z" fill="#F0B462"/>
<path d="M9.86881 7.79045C9.86881 7.89887 9.76131 7.98682 9.62874 7.98682C9.49617 7.98682 9.38867 7.89887 9.38867 7.79045C9.38867 7.68185 9.49617 7.5939 9.62874 7.5939C9.76131 7.5939 9.86881 7.68185 9.86881 7.79045Z" fill="#F0B462"/>
<path d="M7.11851 12.834C7.11851 12.9304 7.03056 13.0088 6.92196 13.0088C6.81335 13.0088 6.72559 12.9304 6.72559 12.834C6.72559 12.7374 6.81335 12.6594 6.92196 12.6594C7.03056 12.6594 7.11851 12.7374 7.11851 12.834Z" fill="#F0B462"/>
<path d="M10.1316 17.7686C10.1316 17.8652 10.0535 17.9434 9.95702 17.9434C9.8604 17.9434 9.78223 17.8652 9.78223 17.7686C9.78223 17.6721 9.8604 17.5941 9.95702 17.5941C10.0535 17.5941 10.1316 17.6721 10.1316 17.7686Z" fill="#F0B462"/>
<path d="M13.1006 8.40177C13.1006 8.51019 13.0224 8.59814 12.9258 8.59814C12.8292 8.59814 12.751 8.51019 12.751 8.40177C12.751 8.29317 12.8292 8.20522 12.9258 8.20522C13.0224 8.20522 13.1006 8.29317 13.1006 8.40177Z" fill="#F0B462"/>
<path d="M8.79113 9.50068C8.79113 9.91867 8.45223 10.2576 8.03405 10.2576C7.61606 10.2576 7.27734 9.91867 7.27734 9.50068C7.27734 9.08268 7.61606 8.74378 8.03405 8.74378C8.45223 8.74378 8.79113 9.08268 8.79113 9.50068Z" fill="#100F0D"/>
<path d="M14.9632 9.50068C14.9632 9.91867 14.6239 10.2576 14.2065 10.2576C13.7881 10.2576 13.4492 9.91867 13.4492 9.50068C13.4492 9.08268 13.7881 8.74378 14.2065 8.74378C14.6239 8.74378 14.9632 9.08268 14.9632 9.50068Z" fill="#100F0D"/>
<path d="M10.1309 10.8253C10.1309 10.8253 10.4179 11.655 11.1352 11.655C11.8526 11.655 12.1397 10.6942 12.1397 10.6942" stroke="#100F0D" stroke-width="0.5" stroke-miterlimit="10" stroke-linecap="round" stroke-linejoin="round"/>
</svg>
