<svg width="215" height="34" viewBox="0 0 215 34" fill="none" xmlns="http://www.w3.org/2000/svg">
<path d="M43.1374 12.5881V9.54545H57.4727V12.5881H52.1289V27H48.4812V12.5881H43.1374ZM63.7816 27.2557C62.4577 27.2557 61.3129 26.9744 60.3469 26.4119C59.3867 25.8437 58.6452 25.054 58.1225 24.0426C57.5998 23.0256 57.3384 21.8466 57.3384 20.5057C57.3384 19.1534 57.5998 17.9716 58.1225 16.9602C58.6452 15.9432 59.3867 15.1534 60.3469 14.5909C61.3129 14.0227 62.4577 13.7386 63.7816 13.7386C65.1055 13.7386 66.2475 14.0227 67.2077 14.5909C68.1737 15.1534 68.918 15.9432 69.4407 16.9602C69.9634 17.9716 70.2248 19.1534 70.2248 20.5057C70.2248 21.8466 69.9634 23.0256 69.4407 24.0426C68.918 25.054 68.1737 25.8437 67.2077 26.4119C66.2475 26.9744 65.1055 27.2557 63.7816 27.2557ZM63.7987 24.4432C64.4009 24.4432 64.9038 24.2727 65.3072 23.9318C65.7106 23.5852 66.0146 23.1136 66.2191 22.517C66.4293 21.9205 66.5344 21.2415 66.5344 20.4801C66.5344 19.7188 66.4293 19.0398 66.2191 18.4432C66.0146 17.8466 65.7106 17.375 65.3072 17.0284C64.9038 16.6818 64.4009 16.5085 63.7987 16.5085C63.1907 16.5085 62.6793 16.6818 62.2646 17.0284C61.8555 17.375 61.5458 17.8466 61.3356 18.4432C61.131 19.0398 61.0288 19.7188 61.0288 20.4801C61.0288 21.2415 61.131 21.9205 61.3356 22.517C61.5458 23.1136 61.8555 23.5852 62.2646 23.9318C62.6793 24.2727 63.1907 24.4432 63.7987 24.4432ZM76.3185 27.2472C75.4833 27.2472 74.739 27.1023 74.0856 26.8125C73.4322 26.517 72.9151 26.0824 72.5344 25.5085C72.1594 24.929 71.9719 24.2074 71.9719 23.3438C71.9719 22.6165 72.1055 22.0057 72.3725 21.5114C72.6396 21.017 73.0032 20.6193 73.4634 20.3182C73.9237 20.017 74.4464 19.7898 75.0316 19.6364C75.6225 19.483 76.2418 19.375 76.8896 19.3125C77.6509 19.233 78.2646 19.1591 78.7305 19.0909C79.1964 19.017 79.5344 18.9091 79.7447 18.767C79.9549 18.625 80.06 18.4148 80.06 18.1364V18.0852C80.06 17.5455 79.8896 17.1278 79.5487 16.8324C79.2134 16.5369 78.7362 16.3892 78.1168 16.3892C77.4634 16.3892 76.9435 16.5341 76.5572 16.8239C76.1708 17.108 75.9151 17.4659 75.7901 17.8977L72.4322 17.625C72.6026 16.8295 72.9379 16.142 73.4379 15.5625C73.9379 14.9773 74.5827 14.5284 75.3725 14.2159C76.168 13.8977 77.0884 13.7386 78.1339 13.7386C78.8612 13.7386 79.5572 13.8239 80.2219 13.9943C80.8924 14.1648 81.4862 14.429 82.0032 14.7869C82.5259 15.1449 82.9379 15.6051 83.239 16.1676C83.5401 16.7244 83.6907 17.392 83.6907 18.1705V27H80.2475V25.1847H80.1452C79.935 25.5938 79.6538 25.9545 79.3015 26.267C78.9492 26.5739 78.5259 26.8153 78.0316 26.9915C77.5373 27.1619 76.9663 27.2472 76.3185 27.2472ZM77.3583 24.7415C77.8924 24.7415 78.364 24.6364 78.7731 24.4261C79.1822 24.2102 79.5032 23.9205 79.7362 23.5568C79.9691 23.1932 80.0856 22.7812 80.0856 22.321V20.9318C79.9719 21.0057 79.8157 21.0739 79.6168 21.1364C79.4237 21.1932 79.2049 21.2472 78.9606 21.2983C78.7163 21.3437 78.4719 21.3864 78.2276 21.4261C77.9833 21.4602 77.7617 21.4915 77.5629 21.5199C77.1367 21.5824 76.7646 21.6818 76.4464 21.8182C76.1282 21.9545 75.881 22.1392 75.7049 22.3722C75.5288 22.5994 75.4407 22.8835 75.4407 23.2244C75.4407 23.7188 75.6197 24.0966 75.9776 24.358C76.3413 24.6136 76.8015 24.7415 77.3583 24.7415ZM97.3995 17.642L94.0756 17.8466C94.0188 17.5625 93.8967 17.3068 93.7092 17.0795C93.5217 16.8466 93.2745 16.6619 92.9677 16.5256C92.6665 16.3835 92.3058 16.3125 91.8853 16.3125C91.3228 16.3125 90.8484 16.4318 90.462 16.6705C90.0756 16.9034 89.8825 17.2159 89.8825 17.608C89.8825 17.9205 90.0075 18.1847 90.2575 18.4006C90.5075 18.6165 90.9364 18.7898 91.5444 18.9205L93.9137 19.3977C95.1864 19.6591 96.1353 20.0795 96.7603 20.6591C97.3853 21.2386 97.6978 22 97.6978 22.9432C97.6978 23.8011 97.445 24.554 96.9393 25.2017C96.4393 25.8494 95.7518 26.3551 94.8768 26.7188C94.0075 27.0767 93.0046 27.2557 91.8683 27.2557C90.1353 27.2557 88.7546 26.8949 87.7262 26.1733C86.7035 25.446 86.104 24.4574 85.9279 23.2074L89.4989 23.0199C89.6069 23.5483 89.8683 23.9517 90.283 24.2301C90.6978 24.5028 91.229 24.6392 91.8768 24.6392C92.5131 24.6392 93.0245 24.517 93.4109 24.2727C93.8029 24.0227 94.0018 23.7017 94.0075 23.3097C94.0018 22.9801 93.8626 22.7102 93.5898 22.5C93.3171 22.2841 92.8967 22.1193 92.3285 22.0057L90.0614 21.554C88.783 21.2983 87.8313 20.8551 87.2063 20.2244C86.587 19.5937 86.2773 18.7898 86.2773 17.8125C86.2773 16.9716 86.5046 16.2472 86.9592 15.6392C87.4194 15.0312 88.0643 14.5625 88.8938 14.233C89.729 13.9034 90.7063 13.7386 91.8256 13.7386C93.479 13.7386 94.7802 14.0881 95.729 14.7869C96.6836 15.4858 97.2404 16.4375 97.3995 17.642ZM106.947 13.9091V16.6364H99.0636V13.9091H106.947ZM100.853 10.7727H104.484V22.9773C104.484 23.3125 104.535 23.5739 104.637 23.7614C104.74 23.9432 104.882 24.071 105.064 24.1449C105.251 24.2187 105.467 24.2557 105.711 24.2557C105.882 24.2557 106.052 24.2415 106.223 24.2131C106.393 24.179 106.524 24.1534 106.615 24.1364L107.186 26.8381C107.004 26.8949 106.748 26.9602 106.419 27.0341C106.089 27.1136 105.689 27.1619 105.217 27.179C104.342 27.2131 103.575 27.0966 102.916 26.8295C102.262 26.5625 101.754 26.1477 101.39 25.5852C101.027 25.0227 100.848 24.3125 100.853 23.4545V10.7727ZM111.554 31.9091C111.093 31.9091 110.662 31.8722 110.258 31.7983C109.86 31.7301 109.531 31.642 109.27 31.5341L110.088 28.8239C110.514 28.9545 110.897 29.0256 111.238 29.0369C111.585 29.0483 111.883 28.9688 112.133 28.7983C112.389 28.6278 112.596 28.3381 112.755 27.929L112.968 27.375L108.272 13.9091H112.091L114.801 23.5227H114.937L117.673 13.9091H121.517L116.429 28.4148C116.184 29.1193 115.852 29.733 115.431 30.2557C115.017 30.7841 114.491 31.1903 113.855 31.4744C113.218 31.7642 112.451 31.9091 111.554 31.9091ZM123.443 27V9.54545H135V12.5881H127.133V16.7472H134.233V19.7898H127.133V27H123.443ZM137.414 27V13.9091H141.044V27H137.414ZM139.238 12.2216C138.698 12.2216 138.235 12.0426 137.848 11.6847C137.468 11.321 137.277 10.8864 137.277 10.3807C137.277 9.88068 137.468 9.4517 137.848 9.09375C138.235 8.73011 138.698 8.54829 139.238 8.54829C139.777 8.54829 140.238 8.73011 140.618 9.09375C141.005 9.4517 141.198 9.88068 141.198 10.3807C141.198 10.8864 141.005 11.321 140.618 11.6847C140.238 12.0426 139.777 12.2216 139.238 12.2216ZM147.583 19.4318V27H143.953V13.9091H147.413V16.2188H147.566C147.856 15.4574 148.342 14.8551 149.024 14.4119C149.706 13.9631 150.532 13.7386 151.504 13.7386C152.413 13.7386 153.206 13.9375 153.882 14.3352C154.558 14.733 155.083 15.3011 155.458 16.0398C155.833 16.7727 156.021 17.6477 156.021 18.6648V27H152.39V19.3125C152.396 18.5114 152.191 17.8864 151.777 17.4375C151.362 16.983 150.791 16.7557 150.064 16.7557C149.575 16.7557 149.143 16.8608 148.768 17.071C148.399 17.2812 148.109 17.5881 147.899 17.9915C147.694 18.3892 147.589 18.8693 147.583 19.4318ZM162.615 27.2472C161.78 27.2472 161.036 27.1023 160.382 26.8125C159.729 26.517 159.212 26.0824 158.831 25.5085C158.456 24.929 158.269 24.2074 158.269 23.3438C158.269 22.6165 158.402 22.0057 158.669 21.5114C158.936 21.017 159.3 20.6193 159.76 20.3182C160.221 20.017 160.743 19.7898 161.328 19.6364C161.919 19.483 162.539 19.375 163.186 19.3125C163.948 19.233 164.561 19.1591 165.027 19.0909C165.493 19.017 165.831 18.9091 166.042 18.767C166.252 18.625 166.357 18.4148 166.357 18.1364V18.0852C166.357 17.5455 166.186 17.1278 165.846 16.8324C165.51 16.5369 165.033 16.3892 164.414 16.3892C163.76 16.3892 163.24 16.5341 162.854 16.8239C162.468 17.108 162.212 17.4659 162.087 17.8977L158.729 17.625C158.9 16.8295 159.235 16.142 159.735 15.5625C160.235 14.9773 160.88 14.5284 161.669 14.2159C162.465 13.8977 163.385 13.7386 164.431 13.7386C165.158 13.7386 165.854 13.8239 166.519 13.9943C167.189 14.1648 167.783 14.429 168.3 14.7869C168.823 15.1449 169.235 15.6051 169.536 16.1676C169.837 16.7244 169.988 17.392 169.988 18.1705V27H166.544V25.1847H166.442C166.232 25.5938 165.951 25.9545 165.598 26.267C165.246 26.5739 164.823 26.8153 164.328 26.9915C163.834 27.1619 163.263 27.2472 162.615 27.2472ZM163.655 24.7415C164.189 24.7415 164.661 24.6364 165.07 24.4261C165.479 24.2102 165.8 23.9205 166.033 23.5568C166.266 23.1932 166.382 22.7812 166.382 22.321V20.9318C166.269 21.0057 166.113 21.0739 165.914 21.1364C165.721 21.1932 165.502 21.2472 165.257 21.2983C165.013 21.3437 164.769 21.3864 164.525 21.4261C164.28 21.4602 164.059 21.4915 163.86 21.5199C163.434 21.5824 163.061 21.6818 162.743 21.8182C162.425 21.9545 162.178 22.1392 162.002 22.3722C161.826 22.5994 161.738 22.8835 161.738 23.2244C161.738 23.7188 161.917 24.0966 162.275 24.358C162.638 24.6136 163.098 24.7415 163.655 24.7415ZM176.435 19.4318V27H172.804V13.9091H176.265V16.2188H176.418C176.708 15.4574 177.194 14.8551 177.875 14.4119C178.557 13.9631 179.384 13.7386 180.355 13.7386C181.265 13.7386 182.057 13.9375 182.733 14.3352C183.409 14.733 183.935 15.3011 184.31 16.0398C184.685 16.7727 184.873 17.6477 184.873 18.6648V27H181.242V19.3125C181.248 18.5114 181.043 17.8864 180.628 17.4375C180.213 16.983 179.642 16.7557 178.915 16.7557C178.426 16.7557 177.995 16.8608 177.62 17.071C177.25 17.2812 176.961 17.5881 176.75 17.9915C176.546 18.3892 176.441 18.8693 176.435 19.4318ZM193.649 27.2557C192.308 27.2557 191.154 26.9716 190.189 26.4034C189.228 25.8295 188.49 25.0341 187.973 24.017C187.461 23 187.206 21.8295 187.206 20.5057C187.206 19.1648 187.464 17.9886 187.981 16.9773C188.504 15.9602 189.245 15.1676 190.206 14.5994C191.166 14.0256 192.308 13.7386 193.632 13.7386C194.774 13.7386 195.774 13.946 196.632 14.3608C197.49 14.7756 198.169 15.358 198.669 16.108C199.169 16.858 199.444 17.7386 199.495 18.75H196.069C195.973 18.0966 195.717 17.571 195.302 17.1733C194.893 16.7699 194.356 16.5682 193.691 16.5682C193.129 16.5682 192.637 16.7216 192.217 17.0284C191.802 17.3295 191.478 17.7699 191.245 18.3494C191.012 18.929 190.896 19.6307 190.896 20.4545C190.896 21.2898 191.01 22 191.237 22.5852C191.47 23.1705 191.797 23.6165 192.217 23.9233C192.637 24.2301 193.129 24.3835 193.691 24.3835C194.106 24.3835 194.478 24.2983 194.808 24.1278C195.143 23.9574 195.419 23.7102 195.635 23.3864C195.856 23.0568 196.001 22.6619 196.069 22.2017H199.495C199.439 23.2017 199.166 24.0824 198.677 24.8438C198.194 25.5994 197.527 26.1903 196.674 26.6165C195.822 27.0426 194.814 27.2557 193.649 27.2557ZM207.786 27.2557C206.439 27.2557 205.28 26.983 204.309 26.4375C203.343 25.8864 202.598 25.108 202.076 24.1023C201.553 23.0909 201.292 21.8949 201.292 20.5142C201.292 19.1676 201.553 17.9858 202.076 16.9688C202.598 15.9517 203.334 15.1591 204.283 14.5909C205.238 14.0227 206.357 13.7386 207.641 13.7386C208.505 13.7386 209.309 13.8778 210.053 14.1562C210.803 14.429 211.456 14.8409 212.013 15.392C212.576 15.9432 213.013 16.6364 213.326 17.4716C213.638 18.3011 213.794 19.2727 213.794 20.3864V21.3835H202.74V19.1335H210.377C210.377 18.6108 210.263 18.1477 210.036 17.7443C209.809 17.3409 209.493 17.0256 209.09 16.7983C208.692 16.5653 208.229 16.4489 207.701 16.4489C207.15 16.4489 206.661 16.5767 206.235 16.8324C205.814 17.0824 205.485 17.4205 205.246 17.8466C205.007 18.267 204.885 18.7358 204.88 19.2528V21.392C204.88 22.0398 204.999 22.5994 205.238 23.071C205.482 23.5426 205.826 23.9062 206.269 24.1619C206.712 24.4176 207.238 24.5455 207.846 24.5455C208.249 24.5455 208.618 24.4886 208.953 24.375C209.289 24.2614 209.576 24.0909 209.814 23.8636C210.053 23.6364 210.235 23.358 210.36 23.0284L213.718 23.25C213.547 24.0568 213.198 24.7614 212.669 25.3636C212.147 25.9602 211.471 26.4261 210.641 26.7614C209.817 27.0909 208.865 27.2557 207.786 27.2557Z" fill="#22252D"/>
<path d="M6.52479 32C4.6311 32 3.09085 30.5503 3.09085 28.7678V17.1278C1.06736 15.4554 0 13.4691 0 11.3671C0 6.11059 7.05021 0 16.1398 0C25.2295 0 32.2794 6.11059 32.2794 11.3671C32.2794 13.5184 31.1038 15.6183 28.9599 17.3084V28.7678C28.9599 30.5503 27.4196 32 25.526 32H6.52479Z" fill="#D98126"/>
<path d="M28.9592 28.7678V17.3084C30.9889 15.7082 32.1494 13.7405 32.2669 11.7099C32.022 6.67849 25.2801 0.969709 16.6279 0.969709C7.81415 0.969709 0.977539 6.89503 0.977539 11.9926C0.977539 14.0308 2.01244 15.9566 3.97457 17.5783V28.8658C3.97457 30.5943 5.46822 32 7.30438 32H25.5252C27.4189 32 28.9592 30.5503 28.9592 28.7678Z" fill="#E08B27"/>
<path d="M32.2118 12.0121C32.2118 7.00102 25.8923 1.32763 18.0966 1.32763C10.3012 1.32763 3.98145 7.00102 3.98145 12.0121C3.98145 14.0551 5.03258 15.9402 6.80442 17.4566V29.3544C6.80442 30.7778 7.92812 31.9316 9.31379 31.9316H26.6706C28.0565 31.9316 29.1796 30.7778 29.1796 29.3544V17.628C31.0766 16.0824 32.2118 14.1332 32.2118 12.0121Z" fill="#F7C076"/>
<path d="M29.1795 29.3544V17.628C30.9729 16.1668 32.0839 14.3445 32.2001 12.3573C31.9588 7.58249 25.9426 2.31238 18.5508 2.31238C11.0058 2.31238 4.88965 7.80316 4.88965 12.6532C4.88965 14.6303 5.90685 16.4547 7.62206 17.9227V29.4373C7.62206 30.815 8.70917 31.9316 10.0506 31.9316H26.6704C28.0564 31.9316 29.1795 30.7778 29.1795 29.3544Z" fill="#F8C67C"/>
<path d="M28.9185 7.4926C29.4135 8.70746 28.9899 10.0291 27.9715 10.4442C26.9531 10.8593 25.7255 10.2111 25.2305 8.99598C24.7352 7.78171 25.1588 6.46006 26.1775 6.04468C27.1959 5.6296 28.4231 6.27774 28.9185 7.4926Z" fill="#F9DFBD"/>
<path d="M30.8514 12.3426C30.9334 13.2338 30.3938 14.0121 29.6466 14.0805C28.8999 14.1489 28.2281 13.4822 28.1458 12.591C28.0644 11.6995 28.6034 10.9215 29.3504 10.8531C30.0976 10.7843 30.7697 11.4513 30.8514 12.3426Z" fill="#F9DFBD"/>
<path d="M11.1099 9.57192C11.1099 9.76515 10.8438 9.92151 10.516 9.92151C10.188 9.92151 9.92188 9.76515 9.92188 9.57192C9.92188 9.37927 10.188 9.22263 10.516 9.22263C10.8438 9.22263 11.1099 9.37927 11.1099 9.57192Z" fill="#F0B462"/>
<path d="M13.3268 7.33596C13.3268 7.52919 13.1471 7.68555 12.9252 7.68555C12.7034 7.68555 12.5234 7.52919 12.5234 7.33596C12.5234 7.14302 12.7034 6.98696 12.9252 6.98696C13.1471 6.98696 13.3268 7.14302 13.3268 7.33596Z" fill="#F0B462"/>
<path d="M8.24507 11.5632C8.24507 11.7756 8.07337 11.9476 7.86096 11.9476C7.64856 11.9476 7.47656 11.7756 7.47656 11.5632C7.47656 11.3511 7.64856 11.1788 7.86096 11.1788C8.07337 11.1788 8.24507 11.3511 8.24507 11.5632Z" fill="#F0B462"/>
<path d="M11.3191 13.5546C11.3191 13.7476 11.1784 13.9039 11.0046 13.9039C10.8311 13.9039 10.6904 13.7476 10.6904 13.5546C10.6904 13.362 10.8311 13.205 11.0046 13.205C11.1784 13.205 11.3191 13.362 11.3191 13.5546Z" fill="#F0B462"/>
<path d="M19.8436 23.9999C19.8436 24.0963 19.7339 24.1748 19.5988 24.1748C19.4639 24.1748 19.3545 24.0963 19.3545 23.9999C19.3545 23.9037 19.4639 23.8252 19.5988 23.8252C19.7339 23.8252 19.8436 23.9037 19.8436 23.9999Z" fill="#F0B462"/>
<path d="M25.5714 20.6812C25.5714 20.9514 25.4306 21.1703 25.2566 21.1703C25.0831 21.1703 24.9424 20.9514 24.9424 20.6812C24.9424 20.4109 25.0831 20.192 25.2566 20.192C25.4306 20.192 25.5714 20.4109 25.5714 20.6812Z" fill="#F0B462"/>
<path d="M22.8467 27.7031C22.8467 27.9155 23.1438 28.0875 23.5102 28.0875C23.8772 28.0875 24.1739 27.9155 24.1739 27.7031C24.1739 27.4907 23.8772 27.319 23.5102 27.319C23.1438 27.319 22.8467 27.4907 22.8467 27.7031Z" fill="#F0B462"/>
<path d="M9.22222 28.6462C9.22222 28.8778 9.03459 29.0654 8.8033 29.0654C8.57142 29.0654 8.38379 28.8778 8.38379 28.6462C8.38379 28.4149 8.57142 28.227 8.8033 28.227C9.03459 28.227 9.22222 28.4149 9.22222 28.6462Z" fill="#F0B462"/>
<path d="M23.685 14.8124C23.685 14.9667 23.5602 15.0918 23.4057 15.0918C23.2511 15.0918 23.126 14.9667 23.126 14.8124C23.126 14.6581 23.2511 14.533 23.4057 14.533C23.5602 14.533 23.685 14.6581 23.685 14.8124Z" fill="#F0B462"/>
<path d="M18.0258 3.63332C18.0258 3.74896 17.8069 3.84277 17.5367 3.84277C17.2667 3.84277 17.0479 3.74896 17.0479 3.63332C17.0479 3.51738 17.2667 3.42386 17.5367 3.42386C17.8069 3.42386 18.0258 3.51738 18.0258 3.63332Z" fill="#F0B462"/>
<path d="M10.4114 23.0218C10.4114 23.1953 10.2237 23.3363 9.99216 23.3363C9.76057 23.3363 9.57324 23.1953 9.57324 23.0218C9.57324 22.8481 9.76057 22.7076 9.99216 22.7076C10.2237 22.7076 10.4114 22.8481 10.4114 23.0218Z" fill="#F0B462"/>
<path d="M18.864 17.1877C18.864 17.342 18.7233 17.4674 18.5498 17.4674C18.3761 17.4674 18.2354 17.342 18.2354 17.1877C18.2354 17.0334 18.3761 16.9084 18.5498 16.9084C18.7233 16.9084 18.864 17.0334 18.864 17.1877Z" fill="#F0B462"/>
<path d="M28.2964 15.3015C28.2964 15.3788 28.1873 15.441 28.0522 15.441C27.9168 15.441 27.8076 15.3788 27.8076 15.3015C27.8076 15.2242 27.9168 15.1617 28.0522 15.1617C28.1873 15.1617 28.2964 15.2242 28.2964 15.3015Z" fill="#F0B462"/>
<path d="M15.7907 10.8649C15.7907 11.0384 15.6187 11.1791 15.4066 11.1791C15.1945 11.1791 15.0225 11.0384 15.0225 10.8649C15.0225 10.6911 15.1945 10.5504 15.4066 10.5504C15.6187 10.5504 15.7907 10.6911 15.7907 10.8649Z" fill="#F0B462"/>
<path d="M11.3894 18.9346C11.3894 19.0889 11.2487 19.2142 11.0749 19.2142C10.9012 19.2142 10.7607 19.0889 10.7607 18.9346C10.7607 18.78 10.9012 18.6552 11.0749 18.6552C11.2487 18.6552 11.3894 18.78 11.3894 18.9346Z" fill="#F0B462"/>
<path d="M16.2104 26.8297C16.2104 26.9843 16.0853 27.1094 15.931 27.1094C15.7765 27.1094 15.6514 26.9843 15.6514 26.8297C15.6514 26.6754 15.7765 26.5506 15.931 26.5506C16.0853 26.5506 16.2104 26.6754 16.2104 26.8297Z" fill="#F0B462"/>
<path d="M20.9607 11.843C20.9607 12.0165 20.8356 12.1572 20.681 12.1572C20.5265 12.1572 20.4014 12.0165 20.4014 11.843C20.4014 11.6693 20.5265 11.5286 20.681 11.5286C20.8356 11.5286 20.9607 11.6693 20.9607 11.843Z" fill="#F0B462"/>
<path d="M14.0656 13.6011C14.0656 14.2699 13.5234 14.8121 12.8543 14.8121C12.1855 14.8121 11.6436 14.2699 11.6436 13.6011C11.6436 12.9323 12.1855 12.3901 12.8543 12.3901C13.5234 12.3901 14.0656 12.9323 14.0656 13.6011Z" fill="#100F0D"/>
<path d="M23.9409 13.6011C23.9409 14.2699 23.3981 14.8121 22.7302 14.8121C22.0608 14.8121 21.5186 14.2699 21.5186 13.6011C21.5186 12.9323 22.0608 12.3901 22.7302 12.3901C23.3981 12.3901 23.9409 12.9323 23.9409 13.6011Z" fill="#100F0D"/>
<path d="M16.21 15.7207C16.21 15.7207 16.6693 17.0482 17.8169 17.0482C18.9648 17.0482 19.4241 15.5109 19.4241 15.5109" stroke="#100F0D" stroke-width="0.5" stroke-miterlimit="10" stroke-linecap="round" stroke-linejoin="round"/>
</svg>
