<svg width="20" height="20" viewBox="0 0 20 20" fill="none" xmlns="http://www.w3.org/2000/svg">
<path d="M18.5081 16.3474L17.3435 16.6321L17.1025 16.815L6.82923 15.4335H0.751953L2.92196 10.0624L6.44979 10.0835L7.30411 11.6339L10.1224 14.5594L9.75727 12.7378L12.2725 13.185L17.1025 16.815L13.2851 13.185L12.6583 11.451L10.4533 6.08061C10.4533 6.08061 8.759 3.08077 8.724 3.04715C8.77173 3.05341 12.6583 3.03308 12.6583 3.03308L13.3678 5.91799L14.9325 11.451L15.3596 12.9481L16.875 14.7017L15.6421 12.8191L16.4478 12.4806L16.8336 14.1873L16.8686 14.7017L18.5081 16.3474Z" fill="#F58C25"/>
<path d="M6.44912 10.0826L2.92129 10.0623L2.08049 9.17498L2.61106 8.82311L1.66049 8.31493L2.47344 8.09837L1.35742 7.40802L2.0256 7.12344L2.19106 6.09378L4.04447 2.69444L6.55253 0.532715L8.71617 3.04547L10.4526 6.07268L6.44912 10.0819V10.0826Z" fill="#81491F"/>
<path d="M0.751953 15.4335H6.83559L8.4965 17.6139C8.4965 17.6139 4.36252 18.8398 2.28797 19.4629C1.75741 18.0745 1.25388 16.7539 0.751953 15.4335Z" fill="#E48027"/>
<path d="M17.109 6.22914L17.5982 6.78423L17.2403 7.20484L17.7358 7.55666L17.3778 8.02419L17.4606 8.76223L16.8473 9.47991L13.3672 5.91797L18.9139 1.40063L17.109 6.22914Z" fill="#81491F"/>
<path d="M17.1035 16.8149L17.1242 18.1628L15.1467 19.1448L8.49031 17.6202C8.49031 17.6202 8.4418 17.6546 8.49031 17.6202C11.2808 17.3568 17.1035 16.8149 17.1035 16.8149Z" fill="#D9C6B7"/>
<path d="M18.9144 1.40063L13.3677 5.91798L12.6582 3.03307L18.9144 1.40063Z" fill="#E48027"/>
<path d="M13.3672 5.91785L16.8401 9.47982L16.6954 11.3288L14.9318 11.4507L13.3672 5.91785Z" fill="#E57F24"/>
<path d="M8.48926 17.613L15.1448 19.1376L17.1223 18.1549L18.4802 18.0399L17.4461 19.3675L14.6421 19.6177L8.48926 17.613Z" fill="#C7B7AB"/>
<path d="M8.48969 17.6139L6.83594 15.4326L10.1227 14.5593L8.48969 17.6139Z" fill="#D76F21"/>
<path d="M18.4811 18.04C18.0261 18.0807 17.5783 18.1213 17.1233 18.1558L17.1025 16.8079L17.3436 16.625L18.5082 16.3474C18.5082 16.3474 18.9011 16.6179 19.2384 16.8079C18.9703 17.241 18.7214 17.6405 18.4811 18.04Z" fill="#2A2626"/>
<path d="M14.9316 11.451L16.696 11.329L16.4549 12.4806L15.7867 11.6949L15.642 12.8192L16.8749 14.7018L15.3596 12.9411L14.9325 11.451H14.9316Z" fill="#D66F21"/>
<path d="M6.4502 10.0825L10.4537 6.07336L12.6587 11.4507L7.3053 11.6337L6.4502 10.0825Z" fill="#E47E25"/>
<path d="M8.48926 17.6139L10.1223 14.5593L17.1024 16.8149L8.48926 17.6139Z" fill="#E47F26"/>
<path d="M7.30469 11.6338L12.6581 11.4509L12.2723 13.185L11.3702 11.8168L9.75787 12.7378L7.30469 11.6338Z" fill="#D66F21"/>
<path d="M12.2725 13.185L12.6582 11.4509L13.285 13.185L17.1032 16.815C17.1032 16.815 13.3749 14.0177 12.2725 13.185Z" fill="#E47F25"/>
<path d="M12.273 13.1848L9.75781 12.7377L11.3702 11.8167L12.273 13.1848Z" fill="#32404E"/>
<path d="M9.75787 12.7376L10.123 14.5592L7.30469 11.6344L9.75787 12.7384V12.7376Z" fill="#E57F25"/>
<path d="M15.6426 12.8191L15.7873 11.6948L16.4555 12.4798L15.6426 12.8191Z" fill="#38424D"/>
<path d="M16.4551 12.4806L16.6961 11.329L16.9506 12.5549L16.8409 14.1873L16.4551 12.4806Z" fill="#E57F24"/>
</svg>
