<svg width="480" height="345" viewBox="0 0 480 345" fill="none" xmlns="http://www.w3.org/2000/svg">
<path d="M391.133 93.5971L407.142 253.454L169.584 277.244L153.575 117.387C152.854 110.189 153.607 103.177 155.594 96.6641C159.128 85.004 166.585 74.9341 176.589 68.1309C183.673 63.3012 192.022 60.1253 201.159 59.2111L332.957 46.0129C362.162 43.0888 388.206 64.3901 391.133 93.5971" fill="#8A9EB5"/>
<path d="M338.293 46.3123C336.546 46.3123 334.786 46.3985 333.014 46.5777L201.216 59.7758C192.503 60.6469 184.098 63.6981 176.907 68.5981C166.987 75.3469 159.612 85.3714 156.136 96.8274C154.113 103.465 153.441 110.364 154.138 117.33L170.092 276.622L406.52 252.946L390.568 93.6537C387.855 66.5791 364.946 46.3123 338.293 46.3123V46.3123ZM169.076 277.865L153.01 117.444C152.298 110.325 152.986 103.279 155.052 96.4984C158.6 84.7952 166.136 74.5529 176.269 67.6612C183.615 62.6546 192.201 59.5377 201.103 58.6461L332.901 45.448C347.183 44.0165 361.155 48.2337 372.259 57.3168C383.364 66.3999 390.267 79.2646 391.696 93.5403L407.761 253.962L169.076 277.865Z" fill="#1F3D8B"/>
<path d="M317.304 215.604C317.148 215.604 316.991 215.6 316.835 215.59C315.537 215.556 314.219 215.307 312.792 213.982C312.259 213.485 312.191 212.678 312.604 212.101C313.741 210.52 314.981 210.012 316.247 209.722C317.506 209.395 318.799 209.375 320.09 209.357C321.381 209.345 322.66 209.191 323.94 209.066L327.783 208.681L343.147 207.143L358.512 205.604L366.195 204.833L368.114 204.638C368.756 204.577 369.382 204.384 370.018 204.259C370.285 204.205 370.555 204.175 370.827 204.175C371.202 204.175 371.581 204.23 371.964 204.336C372.633 204.55 373.321 204.969 374.065 205.945C374.491 206.505 374.541 207.233 374.253 207.828C373.718 208.932 373.125 209.479 372.513 209.819C371.905 210.132 371.279 210.282 370.639 210.282C370.632 210.282 370.626 210.282 370.621 210.282C370.601 210.282 370.58 210.282 370.562 210.282C370.356 210.282 370.151 210.275 369.947 210.271C369.743 210.264 369.541 210.257 369.339 210.257C369.119 210.257 368.899 210.266 368.681 210.289L366.76 210.477L359.077 211.246L343.712 212.784L328.347 214.325L324.505 214.708C323.225 214.84 321.941 214.942 320.673 215.187C319.557 215.395 318.441 215.604 317.304 215.604" fill="#CAD3DE"/>
<path d="M323.97 228.594C322.84 228.067 321.724 227.536 320.604 226.994C321.47 226.928 322.325 226.77 323.181 226.609C324.449 226.364 325.73 226.261 327.012 226.13L330.853 225.747L346.217 224.208L361.584 222.668L369.265 221.899L371.187 221.711C371.404 221.688 371.624 221.679 371.845 221.679C372.044 221.679 372.246 221.686 372.448 221.693C372.652 221.7 372.856 221.704 373.058 221.704C373.081 221.704 373.104 221.704 373.126 221.704C373.133 221.704 373.14 221.704 373.149 221.704C373.786 221.704 374.412 221.554 375.02 221.244C375.286 221.094 375.549 220.908 375.805 220.651C375.817 220.949 375.755 221.248 375.626 221.518C375.091 222.623 374.499 223.172 373.886 223.512C373.276 223.823 372.652 223.973 372.012 223.973C372.006 223.973 371.999 223.973 371.992 223.973C371.969 223.973 371.947 223.973 371.924 223.973C371.722 223.973 371.52 223.968 371.316 223.961C371.114 223.954 370.912 223.95 370.71 223.95C370.49 223.95 370.27 223.957 370.052 223.979L368.131 224.168L360.45 224.937L345.083 226.477L329.718 228.015L325.878 228.398C325.24 228.464 324.605 228.523 323.97 228.594" fill="#CAD3DE"/>
<path d="M351.344 239.677C349.761 239.128 348.189 238.568 346.619 237.996L347.59 237.899L362.955 236.359L370.638 235.59L372.557 235.401C372.775 235.379 372.995 235.372 373.215 235.372C373.415 235.372 373.617 235.376 373.819 235.383C374.023 235.39 374.227 235.394 374.431 235.394C374.454 235.394 374.476 235.394 374.497 235.394C374.506 235.394 374.513 235.394 374.519 235.394C375.159 235.394 375.783 235.245 376.391 234.934C376.659 234.787 376.92 234.598 377.176 234.342C377.19 234.641 377.128 234.939 376.997 235.208C376.461 236.313 375.869 236.862 375.257 237.202C374.649 237.513 374.023 237.663 373.383 237.663C373.376 237.663 373.369 237.663 373.363 237.663C373.34 237.663 373.319 237.663 373.297 237.663C373.093 237.663 372.891 237.658 372.687 237.652C372.485 237.645 372.283 237.64 372.081 237.64C371.861 237.64 371.641 237.647 371.423 237.67L369.504 237.858L361.82 238.627L351.344 239.677" fill="#CAD3DE"/>
<path d="M397.001 250.888L382.204 103.127C379.459 75.7235 356.356 55.2752 329.388 55.2752C327.616 55.2752 325.829 55.3637 324.028 55.5429L192.23 68.7433C186.382 69.3286 180.853 70.8417 175.776 73.1193C183.12 67.3142 191.976 63.7118 201.515 62.7567L333.313 49.5586C334.998 49.3907 336.675 49.3067 338.346 49.3067C349.743 49.3067 360.705 53.2018 369.645 60.5132C379.896 68.8998 386.269 80.7732 387.589 93.9509L403.242 250.262L397.001 250.888" fill="#CAD3DE"/>
<path d="M200.025 59.2111C170.818 62.1352 149.514 88.1822 152.441 117.387L168.45 277.244L18.708 292.239L2.7014 132.382C-0.22497 103.177 21.0786 77.1323 50.2856 74.2059L200.025 59.2111" fill="#8A9EB5"/>
<path d="M27.3516 87.1091C34.427 81.8938 42.8001 78.6521 51.7743 77.7515L174.074 65.5062C172.79 66.4 171.542 67.3505 170.331 68.3554C170.329 68.3577 170.329 68.3577 170.326 68.3599C170.306 68.3758 170.283 68.394 170.263 68.4121C170.261 68.4144 170.258 68.4166 170.256 68.4189C170.217 68.4507 170.179 68.4825 170.14 68.5142C170.136 68.5187 170.129 68.5233 170.124 68.5278C170.106 68.5414 170.09 68.5573 170.072 68.5709C170.063 68.5777 170.054 68.5868 170.045 68.5936C170.027 68.6072 170.011 68.6208 169.995 68.6367C169.982 68.6481 169.97 68.6571 169.957 68.6684C169.932 68.6889 169.909 68.7093 169.886 68.7297C169.873 68.7388 169.857 68.7524 169.845 68.7637C169.832 68.7751 169.818 68.7842 169.807 68.7955C169.786 68.8114 169.766 68.8295 169.748 68.8454C169.734 68.8567 169.721 68.8681 169.709 68.8794C169.689 68.8953 169.671 68.9112 169.65 68.9293C169.639 68.9384 169.63 68.9475 169.619 68.9566C169.598 68.9725 169.578 68.9906 169.56 69.0065C169.551 69.0133 169.544 69.0201 169.537 69.0269C169.51 69.0496 169.482 69.0722 169.455 69.0972C169.448 69.1017 169.444 69.1063 169.437 69.1108C169.414 69.1312 169.392 69.1517 169.369 69.1721C169.362 69.1766 169.355 69.1811 169.351 69.1879C169.292 69.2378 169.235 69.2877 169.179 69.3377C169.174 69.3422 169.169 69.3445 169.167 69.3467C168.707 69.7505 168.253 70.1611 167.806 70.5786L43.0315 83.0758C37.4827 83.6315 32.2175 85.0221 27.3516 87.1091" fill="#CAD3DE"/>
<path d="M338.345 49.3067C336.674 49.3067 334.997 49.3907 333.312 49.5586L201.514 62.7567C188.336 64.077 176.46 70.4492 168.076 80.7006C159.692 90.952 155.801 103.853 157.121 117.031L172.774 273.342L403.241 250.262L387.588 93.9509C386.268 80.7732 379.895 68.8998 369.644 60.5132C360.704 53.2018 349.742 49.3067 338.345 49.3067V49.3067ZM169.58 280.808C167.772 280.808 166.223 279.435 166.039 277.598L150.03 117.741C148.519 102.669 152.97 87.9122 162.559 76.1885C172.15 64.4626 185.732 57.1739 200.804 55.6654L332.602 42.4672C347.676 40.9541 362.432 45.4072 374.156 54.9962C385.88 64.5874 393.168 78.169 394.677 93.2409L410.686 253.098C410.883 255.058 409.454 256.802 407.496 257L169.938 280.79C169.818 280.801 169.698 280.808 169.58 280.808Z" fill="#1F3D8B"/>
<path d="M174.074 65.5061L51.7741 77.7515C38.5963 79.0718 26.7207 85.444 18.3363 95.6954C9.95192 105.947 6.06144 118.85 7.38171 132.028L23.0344 288.339L165.683 274.052L150.03 117.741C148.519 102.669 152.97 87.9121 162.559 76.1885C165.939 72.0553 169.813 68.4756 174.074 65.5061V65.5061ZM19.8426 295.802C19.0237 295.802 18.2274 295.521 17.5877 294.997C16.855 294.398 16.3922 293.534 16.2969 292.595L0.288094 132.738C-1.22046 117.666 3.23035 102.907 12.8193 91.1833C22.4106 79.4597 35.9921 72.171 51.064 70.6602L200.804 55.6653C202.761 55.4612 204.508 56.8971 204.705 58.8571C204.9 60.8148 203.471 62.5616 201.514 62.7567C188.336 64.0769 176.46 70.4492 168.076 80.7006C159.691 90.9519 155.801 103.853 157.121 117.031L173.13 276.888C173.223 277.829 172.939 278.768 172.343 279.499C171.744 280.231 170.88 280.694 169.938 280.79L20.1988 295.784C20.0808 295.798 19.9606 295.802 19.8426 295.802" fill="#1F3D8B"/>
<path d="M70.884 100.124C71.6462 102.968 71.3763 105.157 70.968 107.337C70.605 109.515 70.0175 111.616 69.566 113.778C69.1033 115.935 68.9672 118.147 68.9422 120.352C68.9286 121.454 68.9558 122.557 69.0193 123.659C69.0783 124.769 69.1827 125.83 69.3052 127.039L72.1317 155.269L74.9583 183.5L76.3716 197.615L76.73 201.142C76.8434 202.32 77.1247 203.479 77.3175 204.647C77.5194 205.815 77.5308 207.002 77.3311 208.211C77.0975 209.422 76.6324 210.656 75.421 211.965C74.7995 212.639 73.7809 212.728 73.0573 212.204C71.6122 211.16 70.909 210.042 70.4417 208.901C70.0061 207.755 69.7815 206.591 69.7475 205.407C69.7044 204.223 69.7498 203.03 69.6296 201.855L69.2802 198.325L67.8669 184.21L65.0404 155.979L62.2138 127.749C62.0981 126.606 61.9711 125.313 61.903 124.061C61.8304 122.804 61.7987 121.543 61.8145 120.281C61.8372 117.757 62.0618 115.245 62.2773 112.723C62.5019 110.205 62.9034 107.671 63.8381 105.303C64.725 102.934 66.0544 100.661 68.7063 99.173C69.4231 98.7715 70.3305 99.0256 70.7343 99.7424C70.7956 99.849 70.8409 99.9625 70.8727 100.078L70.884 100.124" fill="#1F3D8B"/>
<path d="M155.898 306.573L12.5285 320.931C9.4615 321.237 6.72569 319 6.41718 315.933L4.75888 299.36C4.45037 296.293 6.6894 293.557 9.75642 293.251L153.126 278.893L155.898 306.573" fill="#22A7F0"/>
<path d="M152.689 279.429L9.80461 293.738C7.01208 294.017 4.96815 296.517 5.24718 299.31L6.90773 315.886C7.04157 317.238 7.69717 318.456 8.74976 319.318C9.80234 320.18 11.1272 320.579 12.4792 320.443L155.363 306.133L152.689 279.429ZM11.9597 321.45C10.5646 321.45 9.22387 320.972 8.12818 320.078C6.87369 319.05 6.09334 317.596 5.93001 315.983L4.27172 299.407C3.93825 296.077 6.3769 293.096 9.70707 292.763L153.567 278.356L156.436 307.011L12.5767 321.419C12.3703 321.439 12.1639 321.45 11.9597 321.45Z" fill="#611940"/>
<path d="M8.55226 301.476L8.46832 300.646C8.26869 298.634 9.74097 296.833 11.7531 296.631L149.937 282.793L150.386 287.273L8.55226 301.476" fill="#9BD7F8"/>
<path d="M421.44 279.98L155.898 306.573L153.126 278.893L418.668 252.299L421.44 279.98Z" fill="#22A7F0"/>
<path d="M153.664 279.331L156.338 306.036L420.905 279.542L418.23 252.837L153.664 279.331ZM155.46 307.109L152.591 278.453L153.079 278.403L419.108 251.764L421.978 280.42L421.49 280.47L155.46 307.109" fill="#611940"/>
<path d="M157.429 286.096L157.086 282.67L157.027 282.083L415.478 256.201L415.88 260.214L157.429 286.096" fill="#9BD7F8"/>
<path d="M149.937 282.793L11.7535 296.63C9.74134 296.832 8.26906 298.634 8.46869 300.646L9.80031 313.935C9.89785 314.91 10.3697 315.79 11.1274 316.41C11.8873 317.029 12.8401 317.315 13.8156 317.219L151.999 303.382L149.937 282.793ZM13.4413 324.365C7.96962 324.365 3.26475 320.205 2.70897 314.645L1.37735 301.356C0.785271 295.433 5.12037 290.133 11.0434 289.539L152.773 275.347C153.714 275.25 154.651 275.536 155.384 276.134C156.114 276.731 156.579 277.595 156.672 278.537L159.445 306.217C159.642 308.177 158.213 309.922 156.255 310.119L14.5256 324.311C14.1626 324.349 13.7997 324.365 13.4413 324.365" fill="#1F3D8B"/>
<path d="M157.029 282.083L159.091 302.672L417.542 276.79L415.48 256.201L157.029 282.083ZM155.899 310.137C155.08 310.137 154.284 309.854 153.644 309.332C152.911 308.733 152.449 307.869 152.353 306.927L149.581 279.247C149.386 277.289 150.813 275.543 152.773 275.347L418.315 248.754C419.252 248.654 420.194 248.942 420.926 249.541C421.657 250.14 422.122 251.004 422.215 251.946L424.987 279.626C425.184 281.584 423.755 283.33 421.797 283.525L156.255 310.119C156.135 310.13 156.017 310.137 155.899 310.137" fill="#1F3D8B"/>
<path d="M57.664 340.882C49.1775 341.733 41.6097 335.542 40.7613 327.058L39.8721 318.193L70.6035 315.114L71.4905 323.98C72.3412 332.466 66.1504 340.034 57.664 340.882Z" fill="#22A7F0"/>
<path d="M40.408 318.63L41.2473 327.008C42.0685 335.211 49.4094 341.211 57.6146 340.395C61.589 339.998 65.1687 338.076 67.6981 334.984C70.2252 331.894 71.398 328.002 71.001 324.027L70.1617 315.652L40.408 318.63V318.63ZM56.1106 341.452C48.0347 341.452 41.0931 335.311 40.2696 327.106L39.335 317.753L71.0396 314.579L71.9765 323.93C72.8521 332.673 66.4527 340.497 57.7121 341.37C57.1745 341.424 56.6414 341.452 56.1106 341.452" fill="#611940"/>
<path d="M200.086 326.62C191.599 327.471 184.032 321.28 183.183 312.794L182.294 303.931L213.025 300.852L213.912 309.718C214.763 318.202 208.572 325.772 200.086 326.62" fill="#22A7F0"/>
<path d="M182.832 304.368L183.671 312.746C184.492 320.949 191.824 326.949 200.038 326.132C208.241 325.311 214.246 317.968 213.425 309.765L212.586 301.387L182.832 304.368ZM198.537 327.189C190.458 327.189 183.517 321.046 182.693 312.843L181.759 303.49L213.463 300.314L214.4 309.668C215.276 318.408 208.876 326.232 200.136 327.108C199.598 327.162 199.065 327.189 198.537 327.189" fill="#611940"/>
<path d="M370.287 309.577C361.8 310.425 354.233 304.235 353.384 295.75L352.495 286.885L383.227 283.807L384.114 292.672C384.964 301.158 378.773 308.726 370.287 309.577Z" fill="#22A7F0"/>
<path d="M353.032 287.325L353.871 295.7C354.268 299.675 356.19 303.255 359.282 305.784C362.374 308.313 366.264 309.486 370.239 309.087C374.213 308.69 377.793 306.768 380.322 303.676C382.849 300.587 384.024 296.694 383.625 292.722L382.786 284.344L353.032 287.325V287.325ZM368.719 310.146C365.055 310.146 361.534 308.894 358.66 306.544C355.366 303.849 353.318 300.033 352.896 295.798L351.959 286.447L383.666 283.271L384.6 292.624C385.476 301.365 379.077 309.189 370.336 310.065C369.794 310.119 369.254 310.146 368.719 310.146" fill="#611940"/>
<path d="M271.002 319.52C262.518 320.368 254.95 314.177 254.099 305.693L253.21 296.828L283.941 293.75L284.828 302.615C285.679 311.101 279.488 318.669 271.002 319.52Z" fill="#22A7F0"/>
<path d="M253.748 297.268L254.587 305.643C255.408 313.846 262.747 319.849 270.954 319.032C279.157 318.208 285.162 310.868 284.341 302.662L283.502 294.287L253.748 297.268ZM269.453 320.087C261.375 320.087 254.433 313.946 253.612 305.741L252.675 296.388L284.382 293.214L285.316 302.565C286.192 311.308 279.793 319.132 271.052 320.007C270.514 320.06 269.981 320.087 269.453 320.087" fill="#611940"/>
<path d="M56.1221 340.469C48.5363 340.469 42.0188 334.71 41.2476 327.008L40.4082 318.63L70.1619 315.652L71.0013 324.027C71.3983 328.002 70.2254 331.894 67.6983 334.984C65.1689 338.076 61.5892 339.998 57.6148 340.395C57.1135 340.444 56.6144 340.469 56.1221 340.469" fill="#1D80C9"/>
<path d="M56.1077 340.962C48.2701 340.962 41.5576 335.02 40.7613 327.058L39.8721 318.193L70.6035 315.114L71.4905 323.98C72.3412 332.466 66.1504 340.034 57.664 340.882C57.1422 340.937 56.6204 340.962 56.1077 340.962ZM70.1634 315.652L40.4097 318.63L41.249 327.008C42.0203 334.71 48.5377 340.469 56.1236 340.469C56.6159 340.469 57.115 340.444 57.6163 340.395C61.5907 339.998 65.1704 338.076 67.6998 334.984C70.2269 331.894 71.3997 328.002 71.0028 324.027L70.1634 315.652" fill="#491D4E"/>
<path d="M198.541 326.207C190.953 326.207 184.443 320.445 183.671 312.746L182.832 304.368L212.586 301.388L213.425 309.765C214.246 317.968 208.242 325.311 200.039 326.132C199.535 326.182 199.036 326.207 198.541 326.207Z" fill="#1D80C9"/>
<path d="M198.53 326.7C190.692 326.7 183.979 320.758 183.183 312.794L182.294 303.931L213.025 300.852L213.912 309.718C214.763 318.202 208.572 325.772 200.086 326.62C199.564 326.672 199.042 326.7 198.53 326.7V326.7ZM212.585 301.388L182.832 304.368L183.671 312.746C184.442 320.445 190.953 326.207 198.541 326.207C199.036 326.207 199.535 326.182 200.038 326.132C208.241 325.311 214.246 317.968 213.425 309.765L212.585 301.388Z" fill="#491D4E"/>
<path d="M368.718 309.164C365.281 309.164 361.976 307.989 359.281 305.784C356.189 303.255 354.268 299.675 353.871 295.7L353.031 287.325L382.785 284.344L383.624 292.722C384.024 296.694 382.848 300.587 380.321 303.676C377.792 306.768 374.212 308.69 370.238 309.087C369.73 309.139 369.222 309.164 368.718 309.164" fill="#1D80C9"/>
<path d="M368.731 309.654C360.893 309.654 354.181 303.713 353.384 295.75L352.495 286.885L383.227 283.807L384.114 292.672C384.964 301.158 378.773 308.726 370.287 309.577C369.765 309.629 369.243 309.654 368.731 309.654ZM382.786 284.344L353.033 287.325L353.872 295.7C354.269 299.675 356.19 303.255 359.282 305.784C361.977 307.989 365.283 309.164 368.719 309.164C369.223 309.164 369.731 309.139 370.239 309.087C374.214 308.69 377.793 306.768 380.323 303.676C382.85 300.587 384.025 296.694 383.626 292.722L382.786 284.344" fill="#491D4E"/>
<path d="M269.46 319.105C261.874 319.105 255.359 313.345 254.587 305.643L253.748 297.268L283.502 294.287L284.341 302.662C285.162 310.868 279.158 318.208 270.955 319.032C270.451 319.082 269.954 319.105 269.46 319.105" fill="#1D80C9"/>
<path d="M269.446 319.597C261.608 319.597 254.895 313.656 254.099 305.693L253.21 296.828L283.941 293.749L284.828 302.615C285.679 311.101 279.488 318.669 271.002 319.52C270.48 319.572 269.961 319.597 269.446 319.597ZM283.501 294.287L253.748 297.268L254.587 305.643C255.358 313.345 261.873 319.105 269.459 319.105C269.954 319.105 270.451 319.082 270.954 319.032C279.157 318.208 285.162 310.868 284.341 302.662L283.501 294.287" fill="#491D4E"/>
<path d="M43.7735 321.382L44.3066 326.702C44.9576 333.219 50.7877 337.979 57.3096 337.337C60.4651 337.021 63.3121 335.495 65.3197 333.038C67.3296 330.583 68.2597 327.491 67.9444 324.334L67.4113 319.016L43.7735 321.382ZM56.1096 344.526C46.4752 344.526 38.1952 337.198 37.2152 327.412L36.3259 318.547C36.2329 317.607 36.5165 316.668 37.1131 315.936C37.712 315.205 38.5763 314.74 39.5177 314.647L70.2469 311.569C72.2024 311.367 73.9514 312.8 74.1487 314.76L75.0357 323.623C75.5416 328.675 74.0512 333.621 70.8367 337.552C67.6223 341.481 63.0716 343.922 58.0197 344.428C57.3777 344.494 56.7425 344.526 56.1096 344.526" fill="#1F3D8B"/>
<path d="M186.196 307.12L186.729 312.44C187.38 318.957 193.217 323.723 199.732 323.074C206.249 322.421 211.02 316.589 210.367 310.071L209.834 304.752L186.196 307.12ZM200.086 326.62H200.097H200.086ZM198.534 330.261C188.898 330.261 180.618 322.936 179.638 313.15L178.748 304.284C178.553 302.327 179.982 300.58 181.94 300.385L212.669 297.307C213.611 297.207 214.55 297.495 215.28 298.094C216.013 298.693 216.476 299.557 216.571 300.496L217.458 309.361C218.502 319.79 210.868 329.122 200.442 330.166C199.802 330.232 199.165 330.261 198.534 330.261" fill="#1F3D8B"/>
<path d="M356.395 290.077L356.928 295.394C357.243 298.552 358.77 301.397 361.226 303.407C363.681 305.414 366.768 306.349 369.931 306.031C373.086 305.714 375.933 304.187 377.941 301.732C379.951 299.276 380.881 296.184 380.565 293.028L380.032 287.709L356.395 290.077ZM368.71 313.218C364.341 313.218 360.14 311.725 356.712 308.924C352.783 305.709 350.342 301.156 349.836 296.104L348.947 287.241C348.854 286.3 349.138 285.361 349.734 284.63C350.333 283.897 351.197 283.435 352.139 283.339L382.868 280.261C384.817 280.064 386.575 281.493 386.77 283.453L387.657 292.318C388.163 297.368 386.672 302.315 383.458 306.245C380.243 310.174 375.693 312.617 370.641 313.123C369.994 313.186 369.35 313.218 368.71 313.218Z" fill="#1F3D8B"/>
<path d="M257.114 300.017L257.647 305.337C258.3 311.854 264.13 316.623 270.65 315.974C277.167 315.321 281.938 309.486 281.285 302.969L280.754 297.651L257.114 300.017ZM271.004 319.52H271.015H271.004ZM269.452 323.161C259.818 323.161 251.536 315.836 250.556 306.047L249.669 297.182C249.471 295.224 250.9 293.477 252.858 293.282L283.59 290.204C284.529 290.106 285.468 290.394 286.201 290.991C286.931 291.59 287.396 292.454 287.489 293.396L288.376 302.259C289.422 312.687 281.788 322.02 271.36 323.065C270.72 323.129 270.083 323.161 269.452 323.161" fill="#1F3D8B"/>
<path d="M79.7086 149.758L36.5684 154.078L34.7627 136.054L77.9051 131.733L79.7086 149.758" fill="#22A7F0"/>
<path d="M35.2996 136.492L37.0078 153.542L79.1725 149.318L77.4643 132.271L35.2996 136.492V136.492ZM36.1298 154.615L34.2266 135.614L78.3422 131.198L80.2455 150.196L36.1298 154.615Z" fill="#611940"/>
<path d="M38.984 142.44L38.7299 139.897C38.6936 139.537 38.9568 139.214 39.3175 139.178L74.7129 135.635L75.0328 138.829L38.984 142.44" fill="#9BD7F8"/>
<path d="M100.985 147.628L79.7087 149.758L77.9053 131.733L99.1793 129.603L100.985 147.628Z" fill="#22A7F0"/>
<path d="M78.4402 132.173L80.1484 149.221L100.447 147.188L98.7388 130.14L78.4402 132.173ZM79.2705 150.294L77.3672 131.295L99.619 129.067L101.52 148.066L79.2705 150.294Z" fill="#611940"/>
<path d="M82.8994 145.857L81.8037 134.925L95.9887 133.505L97.0821 144.436L82.8994 145.857Z" fill="#1D80C9"/>
<path d="M74.7133 135.635L39.3178 139.178C38.9571 139.214 38.694 139.537 38.7303 139.897L39.6944 149.525C39.7171 149.749 39.835 149.89 39.9326 149.967C40.0278 150.047 40.1912 150.135 40.4112 150.112L75.809 146.567L74.7133 135.635V135.635ZM40.3318 157.242C38.542 157.242 36.8224 156.632 35.4182 155.484C33.8099 154.168 32.8095 152.304 32.603 150.235L31.6389 140.607C31.2102 136.338 34.3384 132.516 38.6078 132.087L77.5489 128.187C79.4998 127.992 81.2534 129.419 81.4507 131.379L83.2542 149.402C83.3495 150.344 83.0659 151.283 82.4693 152.016C81.8704 152.746 81.0061 153.209 80.0647 153.304L41.1235 157.204C40.8581 157.231 40.595 157.242 40.3318 157.242" fill="#1F3D8B"/>
<path d="M81.8051 134.925L82.9008 145.857L97.0835 144.436L95.9901 133.504L81.8051 134.925ZM98.6465 147.862H98.6578H98.6465ZM79.7068 153.322C77.8965 153.322 76.3494 151.95 76.1656 150.112L74.3599 132.089C74.2646 131.148 74.5482 130.208 75.1471 129.478C75.746 128.745 76.6102 128.282 77.5494 128.187L96.4869 126.291C98.0567 126.134 99.597 126.597 100.82 127.597C102.042 128.598 102.802 130.016 102.959 131.588L104.295 144.933C104.622 148.177 102.247 151.083 99.0004 151.408L80.0652 153.304C79.945 153.315 79.8247 153.322 79.7068 153.322" fill="#1F3D8B"/>
<path d="M313.739 209.833C314.875 208.252 316.116 207.744 317.382 207.453C318.641 207.127 319.934 207.106 321.225 207.088C322.516 207.077 323.795 206.922 325.074 206.798L328.917 206.412L344.282 204.874L359.646 203.336L367.33 202.565L369.249 202.37C369.891 202.308 370.517 202.115 371.152 201.991C371.785 201.859 372.434 201.882 373.099 202.068C373.768 202.281 374.455 202.701 375.199 203.676C375.626 204.237 375.676 204.967 375.39 205.559C374.852 206.664 374.26 207.211 373.648 207.551C373.033 207.868 372.402 208.016 371.756 208.014C371.109 208.018 370.456 207.952 369.816 208.018L367.895 208.209L360.211 208.978L344.847 210.518L329.482 212.056L325.639 212.439C324.36 212.571 323.076 212.673 321.808 212.918C320.54 213.156 319.269 213.392 317.97 213.324C316.672 213.288 315.354 213.038 313.927 211.714C313.394 211.217 313.326 210.409 313.739 209.833" fill="#1F3D8B"/>
<path d="M315.111 223.523C316.245 221.942 317.488 221.434 318.752 221.144C320.013 220.817 321.304 220.797 322.595 220.779C323.888 220.767 325.165 220.613 326.447 220.488L330.287 220.103L345.652 218.564L361.019 217.026L368.7 216.257L370.621 216.06C371.261 215.999 371.889 215.806 372.522 215.681C373.155 215.552 373.804 215.572 374.471 215.761C375.138 215.972 375.827 216.391 376.571 217.369C376.998 217.927 377.046 218.657 376.76 219.25C376.224 220.354 375.632 220.903 375.02 221.244C374.405 221.559 373.772 221.709 373.126 221.704C372.901 221.706 372.674 221.7 372.447 221.693C372.025 221.679 371.603 221.668 371.186 221.711L369.265 221.899L361.583 222.668L346.217 224.209L330.852 225.747L327.011 226.13C325.73 226.262 324.448 226.364 323.18 226.609C321.91 226.847 320.639 227.083 319.339 227.015C318.042 226.978 316.724 226.729 315.299 225.404C314.766 224.909 314.696 224.1 315.111 223.523" fill="#1F3D8B"/>
<path d="M316.482 237.214C317.616 235.633 318.859 235.127 320.123 234.834C321.384 234.508 322.675 234.489 323.968 234.469C325.259 234.458 326.538 234.303 327.818 234.179L331.658 233.793L347.025 232.255L362.39 230.717L370.073 229.948L371.992 229.753C372.632 229.689 373.26 229.496 373.896 229.374C374.528 229.242 375.177 229.263 375.842 229.451C376.509 229.662 377.198 230.082 377.943 231.059C378.369 231.617 378.417 232.348 378.131 232.94C377.595 234.045 377.003 234.594 376.391 234.934C375.776 235.249 375.145 235.399 374.497 235.395C374.272 235.397 374.045 235.39 373.818 235.383C373.396 235.37 372.975 235.358 372.557 235.401L370.638 235.59L362.955 236.359L347.59 237.899L332.223 239.437L328.382 239.823C327.103 239.952 325.819 240.054 324.551 240.301C323.281 240.537 322.013 240.773 320.713 240.705C319.415 240.669 318.097 240.419 316.67 239.094C316.137 238.6 316.067 237.79 316.482 237.214" fill="#1F3D8B"/>
<path d="M177.796 272.841L162.513 120.216C161.792 113.018 162.547 106.006 164.532 99.5042C167.359 90.1602 172.708 81.8416 179.86 75.4195C212.529 146.462 258.11 195.02 314.859 224.134C314.827 224.338 314.841 224.549 314.895 224.748C314.582 225.032 314.276 225.374 313.977 225.792C313.562 226.368 313.632 227.176 314.165 227.672C315.59 228.997 316.908 229.247 318.205 229.283C318.364 229.29 318.52 229.294 318.677 229.294C319.814 229.294 320.93 229.086 322.046 228.877C322.683 228.755 323.325 228.666 323.969 228.594C327.599 230.29 331.281 231.915 334.999 233.459L331.657 233.793L327.817 234.179C326.537 234.303 325.258 234.458 323.967 234.469C322.674 234.489 321.383 234.507 320.122 234.834C318.859 235.127 317.615 235.633 316.481 237.214C316.22 237.575 316.152 238.028 316.268 238.439C315.955 238.722 315.646 239.065 315.347 239.482C314.932 240.059 315.002 240.868 315.535 241.363C316.962 242.688 318.28 242.937 319.575 242.974C319.734 242.98 319.891 242.985 320.047 242.985C321.184 242.985 322.3 242.776 323.416 242.57C324.684 242.322 325.968 242.22 327.247 242.091L331.088 241.705L346.455 240.167L351.343 239.677C355.307 241.05 359.31 242.343 363.364 243.561C373.368 246.569 383.649 249.101 394.193 251.17L177.796 272.841" fill="#657AA0"/>
<path d="M318.676 229.294C318.52 229.294 318.363 229.29 318.205 229.283C316.907 229.247 315.589 228.997 314.164 227.673C313.631 227.176 313.561 226.368 313.976 225.792C314.275 225.375 314.582 225.032 314.895 224.748C314.965 224.991 315.099 225.22 315.299 225.404C316.723 226.729 318.041 226.978 319.339 227.015C319.495 227.021 319.652 227.026 319.808 227.026C320.074 227.026 320.339 227.015 320.602 226.994C321.723 227.536 322.839 228.067 323.969 228.594C323.325 228.666 322.683 228.755 322.045 228.877C320.929 229.086 319.813 229.294 318.676 229.294" fill="#929FBD"/>
<path d="M320.047 242.985C319.891 242.985 319.734 242.98 319.576 242.974C318.28 242.937 316.962 242.688 315.535 241.363C315.002 240.868 314.932 240.058 315.347 239.482C315.647 239.065 315.955 238.722 316.268 238.439C316.336 238.681 316.472 238.911 316.67 239.094C318.097 240.419 319.415 240.669 320.712 240.705C320.869 240.714 321.025 240.716 321.179 240.716C322.318 240.716 323.434 240.51 324.55 240.301C325.819 240.054 327.103 239.952 328.382 239.823L332.223 239.437L346.619 237.996C348.188 238.568 349.76 239.128 351.344 239.677L346.455 240.167L331.088 241.705L327.248 242.091C325.968 242.22 324.684 242.322 323.416 242.57C322.3 242.776 321.184 242.985 320.047 242.985" fill="#929FBD"/>
<path d="M177.797 272.841L394.194 251.17H394.196L177.797 272.841Z" fill="#1F3D8B"/>
<path d="M178.153 276.386L177.797 272.841L394.196 251.17C398.47 252.007 402.785 252.769 407.143 253.454L178.153 276.386Z" fill="#1F3D8B"/>
<path d="M319.81 227.026C319.653 227.026 319.496 227.021 319.34 227.015C318.042 226.978 316.724 226.729 315.3 225.404C315.1 225.22 314.966 224.991 314.896 224.748C314.841 224.549 314.828 224.338 314.86 224.134C316.761 225.109 318.678 226.062 320.603 226.994C320.34 227.015 320.075 227.026 319.81 227.026" fill="#1F3D8B"/>
<path d="M321.18 240.716C321.025 240.716 320.869 240.714 320.712 240.705C319.415 240.669 318.097 240.419 316.67 239.094C316.472 238.911 316.336 238.682 316.268 238.439C316.153 238.028 316.221 237.574 316.481 237.214C317.616 235.633 318.859 235.127 320.122 234.834C321.384 234.507 322.674 234.489 323.968 234.469C325.258 234.458 326.538 234.303 327.817 234.179L331.658 233.793L334.999 233.459C338.826 235.05 342.701 236.563 346.619 237.996L332.223 239.437L328.382 239.823C327.103 239.952 325.819 240.054 324.551 240.301C323.434 240.51 322.318 240.716 321.18 240.716" fill="#1F3D8B"/>
<path d="M26.8754 287.953L14.5029 164.395C28.0935 192.54 44.6173 214.66 63.6319 231.674C63.1147 232.423 62.6338 233.226 62.1892 234.086C61.985 234.48 61.7899 234.882 61.6062 235.292C59.6394 233.959 57.473 233.258 55.2589 233.258C54.9096 233.258 54.5602 233.276 54.2109 233.31C46.6363 234.07 41.514 242.772 42.5507 253.125C43.018 257.807 44.7149 262.131 47.3237 265.3C49.9688 268.515 53.4101 270.295 56.8945 270.295C57.2325 270.295 57.5705 270.28 57.9085 270.246C60.4765 269.989 62.8266 268.81 64.7481 266.854C68.1576 271.618 72.7967 274.508 77.7852 274.508C78.2139 274.508 78.6449 274.488 79.0782 274.442C84.0031 273.95 88.243 270.722 91.0173 265.355C92.7913 261.929 93.8303 257.857 94.0662 253.536C112.634 264.05 132.912 271.06 154.599 275.164L27.143 287.926L26.8754 287.953" fill="#657AA0"/>
<path d="M27.1426 287.926L154.599 275.164C154.603 275.164 154.596 275.164 154.599 275.164L152.772 275.347L27.1426 287.926Z" fill="#1F3D8B"/>
<path d="M27.2312 291.499L26.875 287.954L27.1427 287.926L152.773 275.348C150.813 275.543 149.386 277.289 149.581 279.247L27.2312 291.499Z" fill="#1F3D8B"/>
<path d="M149.581 279.247C149.386 277.289 150.813 275.543 152.773 275.347L154.599 275.164C159.139 276.021 163.744 276.754 168.403 277.362L149.581 279.247Z" fill="#1F3D8B"/>
<path d="M90.3928 248.339C91.5634 260.035 86.339 270.134 78.7236 270.897C71.1083 271.659 63.9852 262.798 62.8123 251.102C61.6418 239.405 66.8661 229.306 74.4815 228.544C82.0969 227.781 89.22 236.644 90.3928 248.339Z" fill="white"/>
<path d="M77.8044 267.378C76.1235 267.378 74.4629 266.65 72.9453 265.366L76.7314 264.778L77.632 260.997C77.6956 260.89 77.7591 260.779 77.8203 260.668C81.4976 260.253 84.6916 257.751 86.8898 253.901C86.6357 256.932 85.8826 259.77 84.6871 262.081C83.7411 263.907 81.6654 267.022 78.367 267.351C78.1788 267.369 77.9927 267.378 77.8044 267.378" fill="#BDC0D2"/>
<path d="M77.8203 260.668C77.8453 260.618 77.8725 260.57 77.8975 260.523C78.0857 260.167 78.2627 259.801 78.426 259.425C82.0647 258.69 85.1294 255.62 86.9851 251.147C86.9987 252.075 86.9669 252.996 86.8898 253.901C84.6916 257.751 81.4976 260.253 77.8203 260.668" fill="#B7BED4"/>
<path d="M86.225 244.983C83.4076 238.931 78.7798 234.97 73.8571 234.97C73.5532 234.97 73.2492 234.984 72.9429 235.016C72.2828 235.081 71.6386 235.218 71.017 235.419C70.6608 235.297 70.3024 235.202 69.9395 235.131C71.0737 233.689 72.7002 232.305 74.8371 232.089C75.0277 232.071 75.216 232.062 75.402 232.062C78.4373 232.062 80.8623 234.492 82.076 236.002C83.9611 238.35 85.4061 241.506 86.225 244.983" fill="white"/>
<path d="M75.4028 232.062C75.2168 232.062 75.0285 232.071 74.838 232.089C71.5396 232.42 69.4639 235.533 68.5179 237.361C66.6555 240.961 65.8683 245.841 66.3583 250.745C67.3179 260.303 72.819 267.898 78.3678 267.351C81.6662 267.022 83.7419 263.907 84.6878 262.081C86.5503 258.479 87.3374 253.599 86.8475 248.695C86.3552 243.79 84.6175 239.162 82.0768 236.002C80.8631 234.492 78.4381 232.062 75.4028 232.062ZM77.7848 274.508C68.5973 274.508 60.594 264.701 59.2692 251.456C58.634 245.122 59.6708 238.954 62.1888 234.086C64.9655 228.718 69.2053 225.492 74.1279 224.998C79.0461 224.499 83.8462 226.829 87.6323 231.538C91.0646 235.807 93.3036 241.649 93.9365 247.985C94.5717 254.321 93.535 260.489 91.017 265.355C88.2426 270.722 84.0027 273.95 79.0778 274.442C78.6445 274.488 78.2135 274.508 77.7848 274.508" fill="#1F3D8B"/>
<path d="M66.0363 250.773C66.4786 255.194 65.5871 259.293 63.8268 262.226C62.3046 264.778 60.1087 266.443 57.5544 266.7C52.0578 267.251 46.9219 261.02 46.0961 252.769C45.2704 244.532 49.0702 237.407 54.5667 236.855C57.1188 236.599 59.6028 237.797 61.6014 239.995C63.9084 242.522 65.5917 246.351 66.0363 250.773Z" fill="#22A7F0"/>
<path d="M55.2426 237.314C55.0339 237.314 54.8252 237.323 54.6142 237.343C49.3899 237.867 45.7875 244.766 46.5837 252.721C46.9739 256.614 48.3486 260.167 50.4538 262.723C52.5113 265.223 55.0158 266.462 57.5066 266.212C59.8182 265.981 61.9143 264.477 63.407 261.977C65.1809 259.019 65.9613 254.954 65.5462 250.823C65.1333 246.699 63.5635 242.874 61.2383 240.326C59.4575 238.366 57.3501 237.314 55.2426 237.314V237.314ZM56.8691 267.224C54.2944 267.224 51.7718 265.867 49.6961 263.347C47.4685 260.641 46.0166 256.902 45.6083 252.819C44.7576 244.326 48.7547 236.944 54.5167 236.368C57.1482 236.109 59.7932 237.275 61.9642 239.666C64.4278 242.363 66.0906 246.395 66.5239 250.725C66.9572 255.06 66.1292 259.345 64.2486 262.48C62.5948 265.253 60.2333 266.924 57.6041 267.188C57.3591 267.213 57.1141 267.224 56.8691 267.224Z" fill="#611940"/>
<path d="M62.0454 248.536C61.5577 247.76 61.0246 247.052 60.4529 246.426C58.6313 244.423 56.4104 243.253 54.0988 243.253C53.872 243.253 53.6451 243.264 53.416 243.287C52.5177 243.375 51.6625 243.643 50.8662 244.062C51.8893 241.905 53.3911 240.555 54.9223 240.401C55.0289 240.39 55.1378 240.385 55.2444 240.385C56.8846 240.385 58.2638 241.624 58.9693 242.397C60.3758 243.94 61.4465 246.097 62.0454 248.536" fill="#9BD7F8"/>
<path d="M55.2447 240.385C55.1381 240.385 55.0292 240.39 54.9226 240.401C51.8851 240.705 48.97 245.714 49.6415 252.415C49.9659 255.661 51.1274 258.708 52.8242 260.77C53.6273 261.743 55.2561 263.347 57.2002 263.154C58.9809 262.975 60.1991 261.353 60.7685 260.402C62.2136 257.993 62.8374 254.616 62.4881 251.129C62.141 247.649 60.8593 244.466 58.9696 242.397C58.2641 241.624 56.8848 240.385 55.2447 240.385V240.385ZM56.8939 270.295C53.4095 270.295 49.9682 268.515 47.3231 265.3C44.7143 262.131 43.0175 257.807 42.5502 253.125C41.5135 242.772 46.6357 234.07 54.2103 233.31C57.8354 232.949 61.3946 234.471 64.2393 237.599C67.1771 240.818 69.0758 245.371 69.5794 250.419C70.0876 255.471 69.128 260.316 66.8844 264.062C64.7203 267.684 61.533 269.883 57.9079 270.245C57.5699 270.28 57.2319 270.295 56.8939 270.295Z" fill="#1F3D8B"/>
<path d="M79.3297 249.441C80.1577 257.692 76.358 264.817 70.8501 265.368L57.5521 266.7C60.1064 266.443 62.3023 264.781 63.8268 262.229C65.5849 259.293 66.4764 255.194 66.034 250.773C65.7936 248.386 65.1901 246.165 64.3281 244.235C63.5908 242.59 62.6608 241.165 61.5991 239.995C59.6005 237.797 57.1165 236.601 54.5645 236.855L67.8602 235.524C71.7371 235.136 75.4392 238.121 77.5784 242.801L77.5807 242.812C78.4677 244.766 79.087 247.018 79.3297 249.441Z" fill="#22A7F0"/>
<path d="M58.3027 236.973C59.6026 237.529 60.8457 238.437 61.9618 239.666C63.0847 240.907 64.033 242.377 64.7748 244.033C65.6958 246.095 66.2833 248.345 66.5215 250.725C66.9548 255.06 66.1268 259.345 64.2462 262.48C63.3955 263.905 62.3588 265.042 61.1928 265.842L70.8022 264.88C73.2976 264.631 75.5093 262.918 77.0315 260.062C78.59 257.138 79.232 253.384 78.8418 249.491C78.6149 247.211 78.0229 244.972 77.1336 243.014L77.0973 242.928C74.9604 238.307 71.451 235.662 67.9099 236.011L58.3027 236.973V236.973ZM57.6018 267.188L57.5042 266.212L57.5133 266.21C59.8226 265.976 61.9142 264.472 63.4046 261.977C65.1786 259.019 65.9589 254.954 65.5461 250.823C65.317 248.547 64.7566 246.399 63.881 244.434C63.18 242.871 62.2885 241.488 61.2359 240.324C59.2805 238.173 56.9326 237.114 54.6209 237.343H54.6141L54.5166 236.368L67.8123 235.036C71.7958 234.635 75.7112 237.534 78.0251 242.597L78.0614 242.685C78.9756 244.72 79.5813 247.036 79.8172 249.393C80.2278 253.477 79.545 257.431 77.8981 260.523C76.2171 263.678 73.7308 265.572 70.8997 265.856L57.6109 267.188H57.6018" fill="#611940"/>
<path d="M64.9902 266.6C65.0424 266.546 65.0923 266.489 65.1445 266.432L67.7692 266.169L64.9902 266.6Z" fill="#1F3D8B"/>
<path d="M63.1641 266.884L63.2253 266.625L65.1445 266.432C65.0923 266.489 65.0424 266.546 64.9902 266.6L63.1641 266.884" fill="#1F3D8B"/>
<path d="M63.4678 265.615L64.205 262.548C64.2186 262.526 64.2323 262.503 64.2459 262.48C65.5367 260.328 66.3329 257.635 66.5643 254.754L78.8755 253.522C78.6645 255.924 78.0407 258.168 77.0312 260.062C75.509 262.918 73.2972 264.631 70.8019 264.88L63.4678 265.615" fill="#1D80C9"/>
<path d="M72.9462 265.366C72.9417 265.361 72.9372 265.359 72.9326 265.355C74.7792 264.611 76.3989 263.12 77.633 260.997L76.7324 264.778L72.9462 265.366Z" fill="#8992B4"/>
<path d="M72.873 265.377C72.8935 265.371 72.9116 265.362 72.932 265.355C72.9366 265.359 72.9411 265.362 72.9456 265.366L72.873 265.377Z" fill="#1F3D8B"/>
<path d="M63.2246 266.625L63.4673 265.616L70.8014 264.881C73.2968 264.631 75.5086 262.918 77.0307 260.062C78.0402 258.168 78.664 255.925 78.875 253.522L79.4285 253.468L77.6319 260.997C76.3978 263.12 74.7781 264.611 72.9315 265.355C72.9111 265.362 72.893 265.371 72.8726 265.377L67.7684 266.169L65.1438 266.432L63.2246 266.625V266.625ZM64.2046 262.549L66.0625 254.806L66.5638 254.754C66.3324 257.635 65.5362 260.328 64.2454 262.48C64.2318 262.503 64.2182 262.526 64.2046 262.549" fill="#491D4E"/>
<path d="M64.8405 244.183C64.8201 244.133 64.7975 244.083 64.7748 244.033C64.033 242.377 63.0847 240.907 61.9618 239.666C60.8457 238.437 59.6026 237.529 58.3027 236.973L67.9099 236.012C68.1186 235.991 68.3295 235.982 68.5382 235.982C71.8616 235.982 75.0874 238.58 77.0973 242.928L77.1086 242.955L64.8405 244.183" fill="#9BD7F8"/>
<path d="M64.3281 244.235C63.5908 242.59 62.6608 241.166 61.5991 239.995C59.7798 237.992 57.5566 236.821 55.2473 236.821C55.0204 236.821 54.7936 236.833 54.5645 236.855L67.8602 235.524C68.087 235.501 68.3139 235.49 68.5384 235.49C72.1658 235.49 75.564 238.394 77.5784 242.801L77.5807 242.813C77.5626 242.874 77.5535 242.91 77.5535 242.91L77.1089 242.955L77.0975 242.928C75.0876 238.58 71.8618 235.982 68.5384 235.982C68.3297 235.982 68.1188 235.991 67.9101 236.012L58.303 236.973C59.6028 237.529 60.846 238.437 61.9621 239.666C63.085 240.907 64.0332 242.377 64.775 244.033C64.7977 244.083 64.8204 244.133 64.8408 244.183L64.3281 244.235" fill="#B897A9"/>
<path d="M65.6293 239.33C67.7753 242.361 69.1591 246.22 69.5788 250.419C70.0007 254.62 69.4087 258.681 67.9069 262.081L70.4953 261.823C72.4417 261.628 73.7279 259.731 74.3222 258.617C75.5767 256.258 76.1098 253.044 75.7854 249.797C75.461 246.553 74.3018 243.514 72.6027 241.454C71.7997 240.481 70.1663 238.879 68.2177 239.07L65.6293 239.33ZM57.5489 270.264C55.7409 270.264 54.1915 268.894 54.0078 267.054C53.8127 265.096 55.2396 263.349 57.1996 263.154C58.9803 262.975 60.1985 261.353 60.7679 260.403C62.213 257.993 62.8391 254.616 62.4875 251.129C62.1404 247.649 60.8564 244.466 58.969 242.397C58.2181 241.572 56.7005 240.231 54.922 240.401H54.9197C52.9643 240.594 51.2153 239.169 51.0202 237.212C50.8228 235.254 52.252 233.507 54.2097 233.31L67.5077 231.978C71.3324 231.59 75.1979 233.396 78.1038 236.921C80.7126 240.088 82.4095 244.407 82.8768 249.087C83.3464 253.769 82.541 258.343 80.6105 261.968C78.4645 265.999 75.0368 268.531 71.2053 268.914L57.9209 270.243L57.9073 270.246C57.7871 270.257 57.6669 270.264 57.5489 270.264Z" fill="#1F3D8B"/>
<path d="M58.8476 176.289C56.7605 176.289 54.8005 175.216 53.6822 173.417L43.458 156.97L64.9249 154.819L65.0406 155.979L66.996 175.504L59.4555 176.259C59.2536 176.279 59.0495 176.289 58.8476 176.289ZM74.0874 174.794L72.1319 155.269L72.0162 154.109L80.0649 153.304L99.0001 151.408C101.089 151.199 102.82 149.919 103.698 148.168L112.489 162.104C114.9 165.926 112.448 170.953 107.949 171.402L74.0874 174.794" fill="#657AA0"/>
<path d="M66.995 175.504L65.0395 155.979L64.9238 154.819L72.0152 154.109L72.1309 155.269L74.0863 174.794L66.995 175.504Z" fill="#1F3D8B"/>
<path d="M43.4574 156.97L41.3613 153.599L76.1647 150.112C76.3485 151.95 77.8956 153.322 79.7059 153.322C79.8238 153.322 79.9441 153.315 80.0643 153.304L72.0157 154.109L64.9243 154.819L43.4574 156.97" fill="#1F3D8B"/>
<path d="M79.7062 153.322C77.8959 153.322 76.3488 151.95 76.165 150.112L103.217 147.404L103.698 148.168C102.82 149.919 101.089 151.199 98.9998 151.408L80.0646 153.304C79.9444 153.315 79.8242 153.322 79.7062 153.322V153.322ZM98.6459 147.862H98.6573H98.6459Z" fill="#1F3D8B"/>
<path d="M295.46 108.422C289.02 108.422 284.873 106.829 284.331 101.412C283.251 90.6343 298.012 80.3308 317.297 78.398C319.414 78.1871 321.496 78.085 323.529 78.085C340.021 78.085 353.212 84.8225 354.172 94.4182C355.251 105.196 339.338 103.969 320.051 105.899C310.457 106.861 301.835 108.422 295.46 108.422" fill="#A7B6C8"/>
<path d="M474.311 30.6097L476.296 50.4296C477.46 62.0489 471.258 72.6973 461.472 77.7493C458.464 79.3032 455.129 80.3308 451.547 80.6892C447.895 81.0545 444.338 80.6938 441.017 79.7138C430.538 76.6445 422.444 67.4752 421.29 55.9398L419.305 36.1177L474.311 30.6097Z" fill="white"/>
<path d="M474.885 36.3286L474.312 30.6097L474.883 36.3082C474.883 36.315 474.883 36.3218 474.885 36.3286" fill="#8CF7FC"/>
<path d="M419.994 43.0094L419.305 36.1177L474.311 30.6098L474.885 36.3287C474.924 36.7211 474.953 37.1113 474.974 37.5038L420.024 43.0049C419.963 42.592 419.91 42.1746 419.87 41.7549L419.994 43.0094Z" fill="white"/>
<path d="M476.296 50.4296L475.001 37.4991H475.003L474.883 36.3081C474.881 36.2877 474.878 36.2673 474.876 36.2469L476.296 50.4296Z" fill="#05B1D0"/>
<path d="M448.755 80.8276C446.082 80.8276 443.483 80.442 441.014 79.7138C430.536 76.6445 422.442 67.4752 421.287 55.9399L419.992 43.0094L420.022 43.0049C421.614 53.9504 429.497 62.573 439.594 65.5311C442.062 66.2593 444.662 66.645 447.332 66.645C448.255 66.645 449.188 66.5996 450.125 66.5043C453.707 66.1459 457.041 65.1205 460.049 63.5643C469.482 58.6984 475.584 48.6285 474.972 37.5037L475.001 37.4992L476.294 50.4297C476.387 51.3598 476.435 52.2853 476.435 53.1995C476.442 63.7186 470.471 73.1034 461.47 77.7493C458.462 79.3032 455.127 80.3308 451.545 80.6893C450.608 80.7823 449.676 80.8276 448.755 80.8276" fill="#B7BED4"/>
<path d="M419.994 43.0094L419.869 41.7549C419.91 42.1746 419.962 42.592 420.023 43.0049L419.994 43.0094Z" fill="#B7BED4"/>
<path d="M475 37.4991L474.884 36.3286C474.882 36.3218 474.882 36.315 474.882 36.3082L475.002 37.4991" fill="#67B8D2"/>
<path d="M474.974 37.5038C474.954 37.1113 474.924 36.7211 474.886 36.3287L475.001 37.4992L474.974 37.5038" fill="#B7BED4"/>
<path d="M461.47 77.7493L462.327 86.2948C462.613 89.1667 460.519 91.7279 457.647 92.016L447.6 93.0209C444.728 93.309 442.167 91.2129 441.879 88.341L441.015 79.7138C444.336 80.6938 447.893 81.0545 451.545 80.6893C455.127 80.3309 458.462 79.3033 461.47 77.7493" fill="#22A7F0"/>
<path d="M441.576 80.3808L442.367 88.2933C442.494 89.5523 443.102 90.6866 444.082 91.4873C445.06 92.2881 446.29 92.6624 447.551 92.5331L457.598 91.5282C458.857 91.4012 459.991 90.7932 460.792 89.8132C461.593 88.8332 461.965 87.6014 461.838 86.3424L461.055 78.507C458.084 79.9475 454.905 80.8435 451.596 81.177C448.193 81.5173 444.826 81.2496 441.576 80.3808ZM447.068 93.5381C445.754 93.5381 444.491 93.0889 443.461 92.2473C442.279 91.2786 441.544 89.9107 441.392 88.3908L440.455 79.0378L441.154 79.2442C444.5 80.231 447.98 80.5509 451.498 80.2015C454.924 79.8567 458.204 78.8858 461.246 77.3138L461.888 76.9825L462.816 86.2448C462.968 87.7647 462.519 89.2529 461.552 90.4348C460.586 91.6166 459.216 92.3517 457.696 92.5037L447.648 93.5086C447.456 93.529 447.261 93.5381 447.068 93.5381Z" fill="#611940"/>
<path d="M469.893 34.6318L424.43 39.1847C423.754 39.2528 423.26 39.8584 423.328 40.5367L424.834 55.5837C425.816 65.395 432.561 73.5231 442.018 76.2929C444.988 77.1708 448.073 77.4521 451.192 77.1436C454.229 76.8374 457.138 75.9776 459.835 74.5825C468.673 70.0205 473.741 60.6811 472.75 50.7858L471.243 35.7366C471.175 35.0606 470.565 34.5728 469.893 34.6318V34.6318ZM448.744 84.3915C445.777 84.3915 442.851 83.9718 440.006 83.1325C427.758 79.5437 419.015 69.0087 417.743 56.2937L416.237 41.2445C415.776 36.6576 419.136 32.5539 423.723 32.0934L469.183 27.5404C473.759 27.0754 477.876 30.4396 478.335 35.0265L479.841 50.0758C481.125 62.8996 474.558 75.0044 463.106 80.9138C459.608 82.7218 455.838 83.8402 451.902 84.2349C450.845 84.3393 449.792 84.3915 448.744 84.3915" fill="#1F3D8B"/>
<path d="M433.09 38.3C431.282 38.3 429.732 36.9299 429.549 35.0924L426.706 6.72472C426.511 4.767 427.94 3.02024 429.898 2.82515C431.847 2.62552 433.603 4.05698 433.798 6.0147L436.64 34.3824C436.835 36.3401 435.406 38.0868 433.448 38.2819C433.328 38.2955 433.208 38.3 433.09 38.3" fill="#1F3D8B"/>
<path d="M460.668 35.5392C458.86 35.5392 457.311 34.169 457.127 32.3292L454.287 3.96385C454.089 2.00613 455.519 0.259382 457.476 0.0620216C459.429 -0.135338 461.181 1.2938 461.378 3.25379L464.218 31.6214C464.413 33.5792 462.986 35.3259 461.026 35.521C460.906 35.5324 460.786 35.5392 460.668 35.5392Z" fill="#1F3D8B"/>
<path d="M445.042 84.1714L445.425 87.9871C445.484 88.5837 445.827 88.9466 446.027 89.1077C446.226 89.271 446.65 89.5319 447.245 89.4752L457.292 88.4703C457.889 88.409 458.252 88.0665 458.413 87.8669C458.576 87.6695 458.841 87.2453 458.782 86.6487L458.404 82.8761C456.303 83.5567 454.13 84.0104 451.902 84.235C449.595 84.4641 447.304 84.4437 445.042 84.1714V84.1714ZM447.063 96.6119C445.042 96.6119 443.1 95.9223 441.515 94.6247C439.698 93.1389 438.568 91.0337 438.334 88.6971L437.47 80.0677C437.352 78.8881 437.828 77.7266 438.742 76.9689C439.657 76.2135 440.886 75.9595 442.025 76.2952C444.985 77.1709 448.071 77.4544 451.192 77.1436C454.23 76.8374 457.138 75.9776 459.835 74.5825C460.885 74.0426 462.133 74.0539 463.17 74.6165C464.209 75.1791 464.901 76.2181 465.016 77.3932L465.874 85.9386C466.107 88.2752 465.418 90.5618 463.93 92.3789C462.444 94.1983 460.339 95.3279 458.002 95.5616L447.955 96.5666C447.658 96.5961 447.358 96.6119 447.063 96.6119" fill="#1F3D8B"/>
<path d="M400.761 193.348C398.908 193.348 397.343 191.914 397.211 190.036C397.073 188.073 398.552 186.37 400.514 186.231C405.432 185.882 409.781 185.442 413.812 184.882C438.412 181.463 455.748 159.458 453.275 134.782L449.078 92.8733C448.883 90.9156 450.31 89.1688 452.27 88.9738C454.221 88.7719 455.974 90.2033 456.17 92.1633L460.366 134.072C463.222 162.575 443.203 187.994 414.792 191.941C410.602 192.524 406.095 192.98 401.015 193.339C400.931 193.345 400.845 193.348 400.761 193.348" fill="#1F3D8B"/>
</svg>
