<svg width="175" height="168" viewBox="0 0 175 168" fill="none" xmlns="http://www.w3.org/2000/svg">
<path d="M154.506 20.0356C156.06 25.2622 154.649 31.022 150.867 36.8067C149.336 39.1591 148.873 42.0605 149.676 44.7578L170.739 115.578C173.03 123.284 168.647 131.381 160.939 133.672L81.2397 157.375C73.5313 159.669 65.4373 155.286 63.1438 147.578L42.1284 76.9184C41.3231 74.2075 39.3313 72.0116 36.7407 70.8864C30.3027 68.1166 25.9018 64.0242 24.3342 58.7522C19.8562 43.6984 39.9869 24.1303 70.4938 12.6153C73.7173 11.4085 77.0384 10.2855 80.4639 9.26471C116.408 -1.42448 149.558 3.40065 154.506 20.0356" fill="#FBE67B"/>
<path d="M77.0977 154.417C72.3905 154.417 68.0304 151.364 66.5854 146.648C66.5854 146.645 66.5854 146.643 66.5831 146.641C66.5831 146.634 66.5809 146.627 66.5786 146.62C66.5763 146.616 66.5741 146.611 66.5741 146.607C66.5718 146.602 66.5718 146.596 66.5695 146.591C66.5672 146.582 66.5627 146.571 66.5605 146.562L45.545 75.9021C44.4448 72.1976 41.7521 69.1783 38.1497 67.613C34.2456 65.9343 29.273 62.8559 27.7486 57.7359C27.6783 57.5 27.617 57.2618 27.5626 57.0236C26.6098 52.8201 28.0843 48.038 31.503 43.1449C31.5302 44.506 31.7344 45.8399 32.12 47.142C33.6875 52.4117 38.0907 56.5064 44.5287 59.2762C47.1194 60.4014 49.1111 62.5973 49.9164 65.3082L70.9319 135.968C72.8125 142.288 78.5949 146.376 84.8673 146.376C86.242 146.376 87.6417 146.178 89.0277 145.765L147.644 128.332C148.041 129.995 148.624 131.685 149.393 133.388L80.2237 153.961C79.9333 154.048 79.6384 154.122 79.3458 154.184C78.5926 154.342 77.8417 154.417 77.0977 154.417" fill="#B4AC78"/>
<path d="M158.692 105.279L143.876 55.4675C143.076 52.7702 143.538 49.8688 145.07 47.5164C145.48 46.888 145.864 46.2573 146.22 45.629C146.233 45.6789 146.247 45.7265 146.261 45.7741L163.336 103.181C161.68 103.8 160.128 104.499 158.692 105.279Z" fill="#FDF4C3"/>
<path d="M33.3496 40.7155C40.695 31.7775 54.1858 22.7103 70.9206 16.2678C71.1928 16.1612 71.4696 16.0568 71.7441 15.9525C74.9721 14.7433 78.2479 13.6431 81.4805 12.6813C94.082 8.93372 106.464 7.14384 117.23 7.14384C135.022 7.14384 148.408 12.0325 151.09 21.0521C152.129 24.5433 151.477 28.4655 149.152 32.7417C149.05 32.0679 148.9 31.4032 148.705 30.7454C145.539 20.0993 130.818 14.2896 111.209 14.2896C100.18 14.2896 87.6054 16.1272 74.6659 19.9745C71.2382 20.9954 67.9171 22.1183 64.6935 23.3251C52.1669 28.0572 41.3915 34.1436 33.3496 40.7155" fill="#FDF4C3"/>
<path d="M117.229 7.14363C106.463 7.14363 94.0813 8.93352 81.4798 12.6811C78.2471 13.6429 74.9714 14.7431 71.7433 15.9523C43.3031 26.6868 23.9732 45.0413 27.748 57.7359C29.2724 62.8559 34.2449 65.9342 38.149 67.6129C41.7514 69.1782 44.4441 72.1976 45.5444 75.902L66.5598 146.561C68.2861 152.369 74.4156 155.688 80.223 153.961L159.922 130.258C165.73 128.529 169.049 122.4 167.322 116.592L146.259 45.774C145.168 42.1013 145.758 38.1223 147.881 34.8625C151.218 29.7584 152.296 25.1125 151.089 21.0519C148.407 12.0323 135.021 7.14363 117.229 7.14363V7.14363ZM77.0993 161.545C69.2911 161.545 62.0659 156.452 59.7293 148.592L38.7139 77.9346C38.2126 76.2514 36.9762 74.8744 35.3202 74.1553C27.7298 70.8886 22.7459 65.9116 20.9175 59.7662C15.92 42.9679 36.2412 21.7347 69.2344 9.28285C72.6258 8.01248 76.0581 6.8578 79.4472 5.85058C117.855 -5.57361 152.327 0.213345 157.919 19.0193C159.727 25.0966 158.319 31.9203 153.85 38.7576C152.874 40.257 152.595 42.0764 153.09 43.7437L174.153 114.562C177.002 124.135 171.528 134.241 161.955 137.088L82.2556 160.792C80.5406 161.302 78.8052 161.545 77.0993 161.545Z" fill="#6D3420"/>
<path d="M81.2401 157.376L61.0867 163.371C53.3806 165.662 45.2843 161.28 42.9931 153.571L21.9777 82.9118C21.1701 80.201 19.1806 78.0051 16.5786 76.8844C12.4817 75.115 9.20599 72.8056 6.96017 70.004C5.69207 68.4093 4.75064 66.658 4.18125 64.7457C-0.766362 48.1107 24.3573 25.9542 60.3131 15.2605C63.7408 14.2397 67.1368 13.3663 70.4942 12.6154C39.9873 24.1303 19.8566 43.6984 24.3346 58.7522C24.9018 60.6646 25.8455 62.4159 27.1113 64.0107C29.3594 66.8123 32.6351 69.1216 36.7411 70.8865C39.3317 72.0117 41.3235 74.2076 42.1288 76.9185L63.1442 147.578C65.4377 155.286 73.5317 159.669 81.2401 157.376Z" fill="#FEB71F"/>
<path d="M7.17227 61.5809C6.18547 52.001 16.5367 40.257 33.0355 30.6998C29.2539 34.2863 26.2277 37.9862 24.0613 41.6839C15.5839 48.0289 9.6404 54.9365 7.17227 61.5809Z" fill="#FFDF9A"/>
<path d="M33.0353 30.6998C15.2797 40.983 4.64498 53.8023 7.5963 63.7293C9.11847 68.847 14.0865 71.9276 17.9883 73.6109C21.5884 75.1648 24.288 78.1842 25.3905 81.8955L46.4059 152.555C48.1345 158.362 54.2663 161.683 60.0714 159.955L66.4118 158.067C63.2132 155.744 60.8744 152.451 59.7288 148.592L38.7134 77.9347C38.2121 76.2514 36.9757 74.8744 35.3197 74.1553C27.7293 70.8887 22.7454 65.9116 20.917 59.7662C18.2129 50.6786 22.9201 40.2911 33.0353 30.6998ZM56.9476 167.538C49.1394 167.538 41.912 162.446 39.5754 154.587L18.56 83.928C18.0586 82.2448 16.8223 80.8701 15.164 80.1555C7.56907 76.8775 2.58971 71.9004 0.763562 65.7596C-4.83057 46.9537 20.8807 23.2705 59.2955 11.844C62.6824 10.8368 66.1872 9.92713 69.7148 9.13769C71.5432 8.72255 73.3716 9.80238 73.907 11.5945C74.4423 13.3889 73.5009 15.2899 71.7519 15.95C43.3026 26.6869 23.9726 45.0413 27.7474 57.7359C29.2719 62.8559 34.2444 65.9343 38.1485 67.613C41.7509 69.1782 44.4436 72.1976 45.5438 75.9021L66.5593 146.561C67.3964 149.377 69.2792 151.697 71.8562 153.093C74.4355 154.49 77.4073 154.796 80.2225 153.961C82.1076 153.401 84.0926 154.474 84.6552 156.361C85.2155 158.247 84.1402 160.232 82.2551 160.792L82.2369 160.799L62.1017 166.785C60.3867 167.296 58.6535 167.538 56.9476 167.538" fill="#6D3420"/>
<path d="M26.2335 84.7267L25.3918 81.8956C24.2894 78.1843 21.5898 75.1649 17.9897 73.611C15.6305 72.5925 12.8788 71.0635 10.7373 68.8812L23.484 65.0883C26.0588 68.8109 30.065 71.8938 35.3211 74.1555C36.9771 74.8746 38.2134 76.2516 38.7148 77.9348L39.5246 80.6593L26.2335 84.7267" fill="#B68C37"/>
<path d="M22.8249 85.7701L21.9765 82.9118C21.1689 80.201 19.1794 78.0051 16.5774 76.8844C12.4805 75.115 9.2048 72.8056 6.95898 70.004L10.736 68.8811C12.8775 71.0634 15.6292 72.5924 17.9884 73.611C21.5886 75.1649 24.2881 78.1843 25.3906 81.8956L26.2322 84.7266L22.8249 85.7701ZM39.5234 80.6592L38.7135 77.9348C38.2122 76.2515 36.9758 74.8745 35.3198 74.1554C30.0637 71.8937 26.0575 68.8108 23.4828 65.0882L27.1101 64.0107C29.3582 66.8123 32.6339 69.1216 36.7399 70.8865C39.3305 72.0117 41.3223 74.2076 42.1276 76.9185L42.9306 79.6157L39.5234 80.6592" fill="#6D3420"/>
<path d="M56.944 160.413C52.2096 160.411 47.8246 157.321 46.4068 152.555L46.0869 151.482L59.4098 147.519L59.7297 148.592C60.8753 152.451 63.2141 155.744 66.4127 158.067L60.0722 159.955C59.031 160.266 57.9807 160.413 56.944 160.413Z" fill="#BD8E36"/>
<path d="M56.9451 163.407C50.9177 163.407 45.3395 159.474 43.5337 153.41L43.2139 152.337L46.0858 151.482L46.4057 152.555C47.8235 157.321 52.2085 160.411 56.9429 160.413C57.9796 160.413 59.0299 160.266 60.0711 159.955L66.4116 158.067C63.213 155.744 60.8742 152.451 59.7286 148.592L59.4087 147.519L62.2807 146.666L62.6005 147.739C63.7507 151.611 66.3413 154.803 69.8892 156.727C71.6723 157.691 73.5892 158.278 75.5469 158.478L60.9241 162.827C59.5993 163.221 58.2609 163.407 56.9451 163.407" fill="#6D3420"/>
<path d="M46.0868 151.482L45.7646 150.395L59.0876 146.432L59.4097 147.519L46.0868 151.482Z" fill="#B68C37"/>
<path d="M56.9457 164.542C50.4283 164.542 44.3986 160.29 42.4476 153.732L41.8057 151.573L45.7642 150.395L46.0863 151.482L43.2144 152.337L43.5343 153.41C45.34 159.474 50.9183 163.407 56.9457 163.407C58.2614 163.407 59.5998 163.221 60.9246 162.827L75.5474 158.478C73.5897 158.278 71.6728 157.691 69.8898 156.727C66.3418 154.803 63.7512 151.611 62.6011 147.739L62.2812 146.666L59.4093 147.519L59.0871 146.432L63.0434 145.255L63.6877 147.414C65.4911 153.48 71.0671 157.414 77.0968 157.414C78.4103 157.414 79.7464 157.228 81.069 156.836L81.078 156.833L81.4002 157.92L61.249 163.913C59.8153 164.34 58.3703 164.542 56.9457 164.542" fill="#6D3420"/>
<path d="M87.9262 122.12C86.7738 122.12 85.7121 121.37 85.365 120.21C84.9454 118.795 85.7507 117.307 87.1662 116.887C87.4203 116.81 87.6767 116.774 87.9285 116.774C89.0809 116.774 90.1448 117.524 90.4896 118.686C90.9093 120.102 90.104 121.59 88.6907 122.009C88.4366 122.084 88.178 122.12 87.9262 122.12Z" fill="#B4AC78"/>
<path d="M121.309 75.6753C120.42 75.6753 119.599 75.0968 119.331 74.2008C119.007 73.1073 119.628 71.9595 120.722 71.6328C120.917 71.5761 121.116 71.5466 121.312 71.5466C122.201 71.5466 123.022 72.1274 123.287 73.0234C123.614 74.1169 122.99 75.2647 121.899 75.5891C121.702 75.6481 121.504 75.6753 121.309 75.6753" fill="#B4AC78"/>
<path d="M86.557 107.355C85.7426 107.355 84.9918 106.824 84.7468 106.003C84.4496 105.002 85.019 103.952 86.0194 103.653C86.1986 103.6 86.3801 103.576 86.5593 103.576C87.3737 103.576 88.1268 104.106 88.3695 104.928C88.6667 105.928 88.0973 106.978 87.0969 107.278C86.9177 107.33 86.7362 107.355 86.557 107.355Z" fill="#B4AC78"/>
<path d="M101.134 36.2372C100.32 36.2372 99.5689 35.7064 99.3239 34.8852C99.0267 33.887 99.5961 32.8344 100.597 32.5373C100.778 32.4828 100.96 32.4579 101.136 32.4579C101.951 32.4579 102.704 32.9887 102.947 33.8076C103.246 34.808 102.674 35.8606 101.674 36.1578C101.495 36.2122 101.313 36.2372 101.134 36.2372Z" fill="#B4AC78"/>
<path d="M123.373 61.6991C122.559 61.6991 121.808 61.1683 121.563 60.3471C121.266 59.3467 121.835 58.2941 122.836 57.9969C123.015 57.9425 123.196 57.9175 123.376 57.9175C124.19 57.9175 124.943 58.4483 125.186 59.2695C125.483 60.2699 124.914 61.3225 123.913 61.6197C123.734 61.6719 123.553 61.6991 123.373 61.6991Z" fill="#B4AC78"/>
<path d="M138.093 111.18C137.276 111.18 136.525 110.649 136.28 109.828C135.983 108.827 136.552 107.775 137.553 107.477C137.734 107.423 137.916 107.398 138.093 107.398C138.907 107.398 139.66 107.929 139.903 108.75C140.202 109.75 139.631 110.803 138.63 111.1C138.451 111.155 138.269 111.18 138.093 111.18" fill="#B4AC78"/>
<path d="M95.5941 80.8269C94.7797 80.8269 94.0289 80.296 93.7839 79.4748C93.4867 78.4744 94.0561 77.4219 95.0565 77.1247C95.238 77.0702 95.4194 77.0453 95.5964 77.0453C96.4108 77.0453 97.1639 77.5761 97.4066 78.3973C97.7061 79.3977 97.1344 80.4503 96.134 80.7475C95.9548 80.7997 95.7733 80.8269 95.5941 80.8269Z" fill="#B4AC78"/>
<path d="M74.5512 61.3586C73.7368 61.3586 72.9859 60.8278 72.7409 60.0066C72.4437 59.0062 73.0131 57.9536 74.0135 57.6565C74.1927 57.6043 74.3742 57.5771 74.5534 57.5771C75.3678 57.5771 76.1187 58.1079 76.3637 58.9291C76.6609 59.9295 76.0915 60.9821 75.0911 61.2792C74.9118 61.3337 74.7304 61.3586 74.5512 61.3586Z" fill="#B4AC78"/>
<path d="M100.715 112.699C99.1334 112.699 97.6725 111.667 97.1984 110.073C96.6199 108.131 97.727 106.087 99.6711 105.508C100.018 105.404 100.372 105.356 100.719 105.356C102.3 105.356 103.761 106.386 104.235 107.981C104.814 109.923 103.707 111.967 101.763 112.545C101.413 112.65 101.062 112.699 100.715 112.699Z" fill="#B4AC78"/>
<path d="M133.993 75.9928C133.004 75.9928 132.088 75.3463 131.793 74.3481C131.43 73.1322 132.124 71.8505 133.34 71.4898C133.558 71.424 133.78 71.3946 133.995 71.3946C134.987 71.3946 135.901 72.0388 136.198 73.037C136.561 74.2551 135.867 75.5346 134.651 75.8975C134.431 75.9611 134.211 75.9928 133.993 75.9928Z" fill="#B4AC78"/>
</svg>
